<svg width="136" height="44" viewBox="0 0 136 44" fill="none" xmlns="http://www.w3.org/2000/svg">
<path d="M8.91098 16.8231L11.3704 14.8631L12.2855 10.7724L10.7245 8.81239L13.2295 6.71087L14.1238 2.62435L12.5629 0.660156H4.4517L3.15573 6.3946H7.25066L7.57775 4.72587H9.68939L9.16355 6.71087H7.18855V6.6859H3.08948L0.799805 16.8231H8.91098ZM8.24437 10.7724L7.85516 12.7616H5.76423L6.29007 10.7724H8.24437Z" fill="white"/>
<path d="M14.1694 16.8231H22.2806L23.1997 12.7366H17.0429L19.8004 0.660156H15.7345L12.6084 14.8381L14.1694 16.8231Z" fill="white"/>
<path d="M28.6238 12.7366H30.7147L29.7955 16.8231H33.8366L36.9834 2.62435L35.4224 0.660156H29.4022L26.7854 2.62435L23.6593 16.8231H27.7046L28.6238 12.7366ZM30.4621 4.74667H32.4123L31.6339 8.81239H29.5429L30.4621 4.74667Z" fill="white"/>
<path d="M37.4885 16.8231H43.6495L46.1297 14.8631L47.0488 10.7724H42.9829L42.4529 12.7616H40.4986L42.337 4.72587H44.2913L43.9021 6.71087H47.968L48.8872 2.62435L47.3014 0.660156H41.1445L38.6603 2.62435L35.9275 14.8631L37.4885 16.8231Z" fill="white"/>
<path d="M57.0646 8.81239L59.5696 6.71087L60.8573 0.660156H56.8121L55.5037 6.71087H53.4127L54.7211 0.660156H50.68L47.1399 16.8231H51.1852L52.5143 10.7724H54.5845L53.1602 16.8231H57.2013L58.6504 10.7724L57.0646 8.81239Z" fill="white"/>
<path d="M70.252 16.8231L72.9889 13.7978L74.2724 16.8231H76.2474L81.7418 10.7724L83.9694 0.660156H79.9035L77.9285 9.48238L76.6408 11.1678L75.9742 9.48238L77.9285 0.660156H73.9039L71.9289 9.48238L70.5046 11.1678L69.838 9.48238L71.8171 0.660156H67.7471L65.5195 10.7724L68.277 16.8231H70.252Z" fill="white"/>
<path d="M86.5448 12.3454L88.2879 4.72587H90.3789L88.5405 12.7616H86.4496L86.4785 12.6367H82.4954L81.9944 14.8631L83.5554 16.8231H89.5963L92.0806 14.8631L94.8133 2.62435L93.2523 0.660156H87.2321L84.752 2.62435L82.5617 12.3454H86.5448Z" fill="white"/>
<path d="M111.081 0.660156H107.011L104.531 2.62435L102.97 0.660156H98.9041L96.4198 2.62435L93.2979 16.8231H97.339L100.097 4.72587H102.051L99.2933 16.8231H103.359L106.117 4.72587H108.208L105.45 16.8231H109.495L112.642 2.62435L111.081 0.660156Z" fill="white"/>
<path d="M122.244 10.7724L123.163 6.71087H117.006L117.536 4.72587H123.556L124.451 0.660156H116.34L113.88 2.62435L111.127 14.8631L112.688 16.8231H120.799L121.718 12.7616H115.698L116.087 10.7724H122.244Z" fill="white"/>
<path d="M134.239 0.660156H128.082L125.598 2.62435L122.476 16.8231H126.517L129.254 4.74667H131.204L128.496 16.8231H132.537L135.8 2.62435L134.239 0.660156Z" fill="white"/>
<path d="M12.3807 37.6094L13.2999 33.5437H7.143L7.66884 31.5587H13.6891L14.5834 27.493H6.47639L4.01695 29.4572L1.2594 41.696L2.82035 43.6602H10.9315L11.8507 39.5944H5.83048L6.22382 37.6094H12.3807Z" fill="white"/>
<path d="M25.4522 31.5587L26.3713 27.493H22.3054L21.7754 30.2437L20.3511 31.8375L19.7093 30.2437L20.3511 27.493H16.2852L15.366 31.5587L17.1795 35.6244L13.5524 39.5944L12.6084 43.6602H16.6744L17.3203 40.9095L18.6287 39.3156L19.2953 40.9095L18.7653 43.6602H22.8312L23.7297 39.5944L21.9121 35.6244L25.4522 31.5587Z" fill="white"/>
<path d="M27.5886 27.493L23.9367 43.6602H27.9778L31.6546 27.493H27.5886Z" fill="white"/>
<path d="M34.9173 27.493L32.4371 29.4572L31.2405 35.1167L32.6897 37.0768H36.8716L36.205 39.5736H34.2507L34.5281 38.1379H30.4621L29.6796 41.696L31.2405 43.6602H37.3974L39.8817 41.696L41.0535 36.0406L39.4884 34.0514H35.4224L36.0642 31.5837H38.0433L37.65 33.0152H41.6952L42.6144 29.4572L40.9127 27.493H34.9173Z" fill="white"/>
<path d="M43.6247 31.5837H46.7714L44.0387 43.6602H48.084L50.8167 31.5837H53.8019L54.746 27.493H44.5439L43.6247 31.5837Z" fill="white"/>
<path d="M69.8835 27.493H63.8674L61.2465 29.4572L58.1205 43.6602H62.1657L63.0849 39.5736H65.1758L64.2566 43.6602H68.3019L71.4486 29.4572L69.8835 27.493ZM66.095 35.6453H64.0041L64.9232 31.5837H66.8776L66.095 35.6453Z" fill="white"/>
<path d="M81.6963 27.493H75.5353L73.0551 29.4822L69.9332 43.6602H73.9992L74.8935 39.5736H78.9594L81.4437 37.6094L83.2573 29.4822L81.6963 27.493ZM77.767 35.6453H75.8127L76.7319 31.5837H78.6862L77.767 35.6453Z" fill="white"/>
<path d="M87.348 27.493L84.8638 29.4822L81.7418 43.6602H85.8078L86.7021 39.5736H90.7681L93.2523 37.6094L95.0659 29.4822L93.5049 27.493H87.348ZM89.5756 35.6453H87.6213L88.5405 31.5837H90.4948L89.5756 35.6453Z" fill="white"/>
</svg>
