<svg width="704" height="182" viewBox="0 0 704 182" fill="none" xmlns="http://www.w3.org/2000/svg">
<path d="M3.31571 55.5933C3.31571 74.4864 16.4509 87.7116 35.0741 87.7116C50.0985 87.7116 61.4344 79.3446 65.0331 65.6696H48.1193C45.5102 71.0677 40.742 73.7667 34.8941 73.7667C25.4476 73.7667 18.97 66.7492 18.97 55.5933C18.97 44.4374 25.4476 37.42 34.8941 37.42C40.742 37.42 45.5102 40.119 48.1193 45.517H65.0331C61.4344 31.842 50.0985 23.3852 35.0741 23.3852C16.4509 23.3852 3.31571 36.7003 3.31571 55.5933ZM136.621 55.5034C136.621 36.5203 122.317 23.2052 104.323 23.2052C86.4199 23.2052 71.8453 36.5203 71.8453 55.5034C71.8453 74.4864 86.4199 87.8915 104.323 87.8915C122.227 87.8915 136.621 74.4864 136.621 55.5034ZM87.5895 55.5034C87.5895 44.2575 94.0671 37.1501 104.323 37.1501C114.4 37.1501 120.967 44.2575 120.967 55.5034C120.967 66.5693 114.4 73.8566 104.323 73.8566C94.0671 73.8566 87.5895 66.5693 87.5895 55.5034ZM145.18 87.2617H160.565V49.2956L174.779 87.2617H187.195L201.32 49.3856V87.2617H216.704V24.1049H198.621L181.077 67.8288L163.354 24.1049H145.18V87.2617ZM227.767 87.2617H243.152V24.1049H227.767V87.2617ZM295.415 24.1049V63.2405L269.685 24.1049H254.3V87.2617H269.685V48.306L295.415 87.2617H310.8V24.1049H295.415ZM351.461 23.3852C332.567 23.3852 319.342 36.7003 319.342 55.5933C319.342 74.4864 332.657 87.7116 351.551 87.7116C368.194 87.7116 378.721 76.8255 381.959 65.9395V51.6348H348.492V62.9706H368.014C365.675 70.078 360.367 74.1265 352.72 74.1265C341.654 74.1265 334.997 67.289 334.997 55.5933C334.997 44.6174 341.564 37.5999 351.461 37.5999C357.218 37.5999 361.537 39.8491 363.876 44.0776H380.88C377.551 31.1223 366.575 23.3852 351.461 23.3852ZM455.429 68.4586C455.429 47.3164 424.211 52.2646 424.211 41.2886C424.211 37.33 427 35.4407 430.688 35.5307C434.827 35.6207 437.706 38.0498 437.976 42.0983H454.62C453.99 30.0427 444.723 23.2052 430.958 23.2052C417.733 23.2052 407.927 29.8628 407.927 41.8284C407.747 64.2302 439.325 57.9325 439.325 69.6282C439.325 73.3168 436.446 75.566 431.948 75.566C427.63 75.566 424.571 73.2269 424.121 68.3687H407.747C408.197 81.144 418.813 87.8915 432.398 87.8915C447.152 87.8915 455.429 79.0747 455.429 68.4586ZM527.064 55.5034C527.064 36.5203 512.759 23.2052 494.766 23.2052C476.863 23.2052 462.288 36.5203 462.288 55.5034C462.288 74.4864 476.863 87.8915 494.766 87.8915C512.669 87.8915 527.064 74.4864 527.064 55.5034ZM478.032 55.5034C478.032 44.2575 484.51 37.1501 494.766 37.1501C504.842 37.1501 511.41 44.2575 511.41 55.5034C511.41 66.5693 504.842 73.8566 494.766 73.8566C484.51 73.8566 478.032 66.5693 478.032 55.5034ZM597.79 55.5034C597.79 36.5203 583.485 23.2052 565.492 23.2052C547.589 23.2052 533.014 36.5203 533.014 55.5034C533.014 74.4864 547.589 87.8915 565.492 87.8915C583.395 87.8915 597.79 74.4864 597.79 55.5034ZM548.758 55.5034C548.758 44.2575 555.236 37.1501 565.492 37.1501C575.568 37.1501 582.136 44.2575 582.136 55.5034C582.136 66.5693 575.568 73.8566 565.492 73.8566C555.236 73.8566 548.758 66.5693 548.758 55.5034ZM647.464 24.1049V63.2405L621.733 24.1049H606.349V87.2617H621.733V48.306L647.464 87.2617H662.848V24.1049H647.464ZM679.398 64.9499H692.443L694.242 21.8557H677.599L679.398 64.9499ZM695.232 79.7045C695.232 74.9362 691.543 71.2476 686.145 71.2476C680.657 71.2476 676.969 74.9362 676.969 79.7045C676.969 84.2928 680.657 87.9815 686.145 87.9815C691.543 87.9815 695.232 84.2928 695.232 79.7045Z" fill="white"/>
<path d="M81.225 162.922C81.225 164.876 79.8543 166.013 77.6086 166.013H73.1173V159.685H77.492C79.7084 159.685 81.225 160.91 81.225 162.922ZM80.7 154.085C80.7 155.952 79.3876 156.972 77.2295 156.972H73.1173V151.169H77.2295C79.3876 151.169 80.7 152.248 80.7 154.085ZM84.5497 163.272C84.5497 160.851 82.7999 158.693 80.6417 158.314C82.5957 157.614 84.0831 156.127 84.0831 153.677C84.0831 150.819 81.8083 148.456 77.5211 148.456H69.7926V168.726H77.9003C82.0416 168.726 84.5497 166.363 84.5497 163.272ZM94.9288 155.193C97.4078 155.193 99.3618 156.768 99.4201 159.247H90.525C90.875 156.71 92.6831 155.193 94.9288 155.193ZM102.453 163.943H98.866C98.2535 165.197 97.1161 166.188 95.0746 166.188C92.6248 166.188 90.7291 164.584 90.4958 161.93H102.774C102.861 161.376 102.891 160.851 102.891 160.297C102.891 155.572 99.6534 152.394 95.0746 152.394C90.3208 152.394 87.0544 155.631 87.0544 160.676C87.0544 165.722 90.4667 168.988 95.0746 168.988C99.0118 168.988 101.549 166.742 102.453 163.943ZM114.263 164.263C114.263 167.53 116.042 168.726 118.9 168.726H121.525V165.955H119.484C118.084 165.955 117.617 165.459 117.617 164.263V155.368H121.525V152.656H117.617V148.661H114.263V152.656H112.368V155.368H114.263V164.263ZM124.59 168.726H127.914V159.743C127.914 156.797 129.518 155.281 131.968 155.281C134.389 155.281 135.993 156.797 135.993 159.743V168.726H139.288V159.247C139.288 154.756 136.489 152.394 132.901 152.394C130.831 152.394 129.023 153.181 127.914 154.523V147.144H124.59V168.726ZM150.295 155.193C152.774 155.193 154.728 156.768 154.787 159.247H145.892C146.242 156.71 148.05 155.193 150.295 155.193ZM157.82 163.943H154.233C153.62 165.197 152.483 166.188 150.441 166.188C147.991 166.188 146.096 164.584 145.862 161.93H158.141C158.228 161.376 158.257 160.851 158.257 160.297C158.257 155.572 155.02 152.394 150.441 152.394C145.687 152.394 142.421 155.631 142.421 160.676C142.421 165.722 145.833 168.988 150.441 168.988C154.378 168.988 156.916 166.742 157.82 163.943ZM169.513 168.726H172.867V155.368H175.842V152.656H172.867V151.519C172.867 149.681 173.567 148.981 175.609 148.981V146.211C171.409 146.211 169.513 147.815 169.513 151.519V152.656H167.618V155.368H169.513V168.726ZM178.788 168.726H182.113V152.656H178.788V168.726ZM180.48 150.527C181.647 150.527 182.58 149.594 182.58 148.398C182.58 147.202 181.647 146.269 180.48 146.269C179.284 146.269 178.351 147.202 178.351 148.398C178.351 149.594 179.284 150.527 180.48 150.527ZM189.803 160.268C189.803 156.856 191.32 155.835 193.769 155.835H194.615V152.394C192.34 152.394 190.736 153.385 189.803 154.989V152.656H186.478V168.726H189.803V160.268ZM209.658 164.234C209.483 158.431 200.413 160.239 200.413 157.002C200.413 155.922 201.346 155.193 203.125 155.193C204.933 155.193 206.012 156.156 206.129 157.556H209.454C209.279 154.348 206.887 152.394 203.242 152.394C199.45 152.394 197.059 154.464 197.059 157.031C197.059 162.922 206.391 161.114 206.391 164.263C206.391 165.372 205.371 166.188 203.446 166.188C201.608 166.188 200.354 165.109 200.238 163.797H196.796C196.942 166.713 199.654 168.988 203.504 168.988C207.295 168.988 209.658 166.947 209.658 164.234ZM213.775 164.263C213.775 167.53 215.554 168.726 218.412 168.726H221.037V165.955H218.996C217.596 165.955 217.129 165.459 217.129 164.263V155.368H221.037V152.656H217.129V148.661H213.775V152.656H211.879V155.368H213.775V164.263ZM232.202 164.263C232.202 167.53 233.981 168.726 236.839 168.726H239.464V165.955H237.423C236.023 165.955 235.556 165.459 235.556 164.263V155.368H239.464V152.656H235.556V148.661H232.202V152.656H230.307V155.368H232.202V164.263ZM257.84 160.676C257.84 155.631 254.223 152.394 249.645 152.394C245.066 152.394 241.449 155.631 241.449 160.676C241.449 165.722 244.92 168.988 249.499 168.988C254.107 168.988 257.84 165.722 257.84 160.676ZM244.832 160.676C244.832 157.031 247.078 155.281 249.586 155.281C252.065 155.281 254.428 157.031 254.428 160.676C254.428 164.322 251.978 166.101 249.499 166.101C246.991 166.101 244.832 164.322 244.832 160.676ZM268.702 168.726H272.027V161.814L277.977 168.726H282.468L275.06 160.705L282.468 152.656H277.86L272.027 159.685V147.144H268.702V168.726ZM296.254 168.726H299.55V159.247C299.55 154.756 296.721 152.394 292.959 152.394C291.034 152.394 289.255 153.181 288.176 154.493V152.656H284.851V168.726H288.176V159.743C288.176 156.797 289.78 155.281 292.229 155.281C294.65 155.281 296.254 156.797 296.254 159.743V168.726ZM319.102 160.676C319.102 155.631 315.485 152.394 310.907 152.394C306.328 152.394 302.712 155.631 302.712 160.676C302.712 165.722 306.182 168.988 310.761 168.988C315.369 168.988 319.102 165.722 319.102 160.676ZM306.095 160.676C306.095 157.031 308.34 155.281 310.848 155.281C313.327 155.281 315.69 157.031 315.69 160.676C315.69 164.322 313.24 166.101 310.761 166.101C308.253 166.101 306.095 164.322 306.095 160.676ZM325.509 168.726H329.009L332.246 156.856L335.483 168.726H338.983L343.97 152.656H340.704L337.379 165.518L334.113 152.656H330.642L327.23 165.576L323.876 152.656H320.493L325.509 168.726ZM357.151 168.726H360.651L363.888 156.856L367.125 168.726H370.625L375.612 152.656H372.346L369.021 165.518L365.755 152.656H362.284L358.872 165.576L355.518 152.656H352.135L357.151 168.726ZM378.097 168.726H381.422V159.743C381.422 156.797 383.026 155.281 385.476 155.281C387.896 155.281 389.5 156.797 389.5 159.743V168.726H392.796V159.247C392.796 154.756 389.996 152.394 386.409 152.394C384.338 152.394 382.53 153.181 381.422 154.523V147.144H378.097V168.726ZM403.803 155.193C406.282 155.193 408.236 156.768 408.294 159.247H399.399C399.749 156.71 401.557 155.193 403.803 155.193ZM411.327 163.943H407.74C407.128 165.197 405.99 166.188 403.949 166.188C401.499 166.188 399.603 164.584 399.37 161.93H411.648C411.735 161.376 411.765 160.851 411.765 160.297C411.765 155.572 408.527 152.394 403.949 152.394C399.195 152.394 395.928 155.631 395.928 160.676C395.928 165.722 399.341 168.988 403.949 168.988C407.886 168.988 410.423 166.742 411.327 163.943ZM426.44 168.726H429.735V159.247C429.735 154.756 426.906 152.394 423.144 152.394C421.219 152.394 419.44 153.181 418.361 154.493V152.656H415.037V168.726H418.361V159.743C418.361 156.797 419.965 155.281 422.415 155.281C424.836 155.281 426.44 156.797 426.44 159.743V168.726ZM456.863 160.676C456.863 155.631 453.247 152.394 448.668 152.394C444.089 152.394 440.473 155.631 440.473 160.676C440.473 165.722 443.944 168.988 448.522 168.988C453.13 168.988 456.863 165.722 456.863 160.676ZM443.856 160.676C443.856 157.031 446.102 155.281 448.61 155.281C451.089 155.281 453.451 157.031 453.451 160.676C453.451 164.322 451.001 166.101 448.522 166.101C446.014 166.101 443.856 164.322 443.856 160.676ZM474.703 152.656H471.378V161.609C471.378 164.555 469.774 166.072 467.324 166.072C464.904 166.072 463.3 164.555 463.3 161.609V152.656H460.004V162.105C460.004 166.597 462.862 168.959 466.625 168.959C468.52 168.959 470.328 168.171 471.378 166.801V168.726H474.703V152.656ZM482.414 160.268C482.414 156.856 483.931 155.835 486.381 155.835H487.227V152.394C484.952 152.394 483.348 153.385 482.414 154.989V152.656H479.09V168.726H482.414V160.268ZM509.845 164.234C509.67 158.431 500.6 160.239 500.6 157.002C500.6 155.922 501.533 155.193 503.312 155.193C505.121 155.193 506.2 156.156 506.316 157.556H509.641C509.466 154.348 507.075 152.394 503.429 152.394C499.638 152.394 497.246 154.464 497.246 157.031C497.246 162.922 506.579 161.114 506.579 164.263C506.579 165.372 505.558 166.188 503.633 166.188C501.796 166.188 500.542 165.109 500.425 163.797H496.984C497.129 166.713 499.842 168.988 503.691 168.988C507.483 168.988 509.845 166.947 509.845 164.234ZM513.438 168.726H516.762V152.656H513.438V168.726ZM515.129 150.527C516.296 150.527 517.229 149.594 517.229 148.398C517.229 147.202 516.296 146.269 515.129 146.269C513.933 146.269 513 147.202 513 148.398C513 149.594 513.933 150.527 515.129 150.527ZM521.652 164.263C521.652 167.53 523.431 168.726 526.289 168.726H528.914V165.955H526.873C525.473 165.955 525.006 165.459 525.006 164.263V155.368H528.914V152.656H525.006V148.661H521.652V152.656H519.757V155.368H521.652V164.263ZM538.745 155.193C541.224 155.193 543.178 156.768 543.236 159.247H534.341C534.691 156.71 536.499 155.193 538.745 155.193ZM546.269 163.943H542.682C542.069 165.197 540.932 166.188 538.89 166.188C536.441 166.188 534.545 164.584 534.312 161.93H546.59C546.677 161.376 546.707 160.851 546.707 160.297C546.707 155.572 543.469 152.394 538.89 152.394C534.137 152.394 530.87 155.631 530.87 160.676C530.87 165.722 534.283 168.988 538.89 168.988C542.828 168.988 545.365 166.742 546.269 163.943ZM557.554 168.726H560.879V152.656H557.554V168.726ZM559.246 150.527C560.412 150.527 561.346 149.594 561.346 148.398C561.346 147.202 560.412 146.269 559.246 146.269C558.05 146.269 557.117 147.202 557.117 148.398C557.117 149.594 558.05 150.527 559.246 150.527ZM577.231 164.234C577.056 158.431 567.986 160.239 567.986 157.002C567.986 155.922 568.919 155.193 570.698 155.193C572.506 155.193 573.585 156.156 573.702 157.556H577.026C576.851 154.348 574.46 152.394 570.814 152.394C567.023 152.394 564.632 154.464 564.632 157.031C564.632 162.922 573.964 161.114 573.964 164.263C573.964 165.372 572.943 166.188 571.019 166.188C569.181 166.188 567.927 165.109 567.811 163.797H564.369C564.515 166.713 567.227 168.988 571.077 168.988C574.868 168.988 577.231 166.947 577.231 164.234ZM588.399 168.726H591.724V147.144H588.399V168.726ZM596.089 168.726H599.414V152.656H596.089V168.726ZM597.78 150.527C598.947 150.527 599.88 149.594 599.88 148.398C599.88 147.202 598.947 146.269 597.78 146.269C596.585 146.269 595.651 147.202 595.651 148.398C595.651 149.594 596.585 150.527 597.78 150.527ZM601.883 152.656L607.978 168.726H611.945L618.069 152.656H614.54L609.991 165.751L605.441 152.656H601.883ZM627.348 155.193C629.827 155.193 631.781 156.768 631.84 159.247H622.945C623.295 156.71 625.103 155.193 627.348 155.193ZM634.873 163.943H631.286C630.673 165.197 629.536 166.188 627.494 166.188C625.044 166.188 623.149 164.584 622.915 161.93H635.194C635.281 161.376 635.31 160.851 635.31 160.297C635.31 155.572 632.073 152.394 627.494 152.394C622.74 152.394 619.474 155.631 619.474 160.676C619.474 165.722 622.886 168.988 627.494 168.988C631.431 168.988 633.969 166.742 634.873 163.943Z" fill="white"/>
</svg>
