<svg width="59" height="44" viewBox="0 0 59 44" fill="none" xmlns="http://www.w3.org/2000/svg">
<path d="M12.1733 7.81322V20.4492H9.09528V15.2472H4.30728V20.4492H1.22928V7.81322H4.30728V12.7632H9.09528V7.81322H12.1733ZM18.9673 20.5932C17.9833 20.5932 17.0953 20.3832 16.3033 19.9632C15.5233 19.5432 14.9053 18.9432 14.4493 18.1632C14.0053 17.3832 13.7833 16.4712 13.7833 15.4272C13.7833 14.3952 14.0113 13.4892 14.4673 12.7092C14.9233 11.9172 15.5473 11.3112 16.3393 10.8912C17.1313 10.4712 18.0193 10.2612 19.0033 10.2612C19.9873 10.2612 20.8753 10.4712 21.6673 10.8912C22.4593 11.3112 23.0833 11.9172 23.5393 12.7092C23.9953 13.4892 24.2233 14.3952 24.2233 15.4272C24.2233 16.4592 23.9893 17.3712 23.5213 18.1632C23.0653 18.9432 22.4353 19.5432 21.6313 19.9632C20.8393 20.3832 19.9513 20.5932 18.9673 20.5932ZM18.9673 17.9292C19.5553 17.9292 20.0533 17.7132 20.4613 17.2812C20.8813 16.8492 21.0913 16.2312 21.0913 15.4272C21.0913 14.6232 20.8873 14.0052 20.4793 13.5732C20.0833 13.1412 19.5913 12.9252 19.0033 12.9252C18.4033 12.9252 17.9053 13.1412 17.5093 13.5732C17.1133 13.9932 16.9153 14.6112 16.9153 15.4272C16.9153 16.2312 17.1073 16.8492 17.4913 17.2812C17.8873 17.7132 18.3793 17.9292 18.9673 17.9292ZM38.6722 10.2972C39.9202 10.2972 40.9102 10.6752 41.6422 11.4312C42.3862 12.1872 42.7582 13.2372 42.7582 14.5812V20.4492H39.6982V14.9952C39.6982 14.3472 39.5242 13.8492 39.1762 13.5012C38.8402 13.1412 38.3722 12.9612 37.7722 12.9612C37.1722 12.9612 36.6982 13.1412 36.3502 13.5012C36.0142 13.8492 35.8462 14.3472 35.8462 14.9952V20.4492H32.7862V14.9952C32.7862 14.3472 32.6122 13.8492 32.2642 13.5012C31.9282 13.1412 31.4602 12.9612 30.8602 12.9612C30.2602 12.9612 29.7862 13.1412 29.4382 13.5012C29.1022 13.8492 28.9342 14.3472 28.9342 14.9952V20.4492H25.8562V10.4052H28.9342V11.6652C29.2462 11.2452 29.6542 10.9152 30.1582 10.6752C30.6622 10.4232 31.2322 10.2972 31.8682 10.2972C32.6242 10.2972 33.2962 10.4592 33.8842 10.7832C34.4842 11.1072 34.9522 11.5692 35.2882 12.1692C35.6362 11.6172 36.1102 11.1672 36.7102 10.8192C37.3102 10.4712 37.9642 10.2972 38.6722 10.2972ZM54.3789 15.2652C54.3789 15.5532 54.3609 15.8532 54.3249 16.1652H47.3589C47.4069 16.7892 47.6049 17.2692 47.9529 17.6052C48.3129 17.9292 48.7509 18.0912 49.2669 18.0912C50.0349 18.0912 50.5689 17.7672 50.8689 17.1192H54.1449C53.9769 17.7792 53.6709 18.3732 53.2269 18.9012C52.7949 19.4292 52.2489 19.8432 51.5889 20.1432C50.9289 20.4432 50.1909 20.5932 49.3749 20.5932C48.3909 20.5932 47.5149 20.3832 46.7469 19.9632C45.9789 19.5432 45.3789 18.9432 44.9469 18.1632C44.5149 17.3832 44.2989 16.4712 44.2989 15.4272C44.2989 14.3832 44.5089 13.4712 44.9289 12.6912C45.3609 11.9112 45.9609 11.3112 46.7289 10.8912C47.4969 10.4712 48.3789 10.2612 49.3749 10.2612C50.3469 10.2612 51.2109 10.4652 51.9669 10.8732C52.7229 11.2812 53.3109 11.8632 53.7309 12.6192C54.1629 13.3752 54.3789 14.2572 54.3789 15.2652ZM51.2289 14.4552C51.2289 13.9272 51.0489 13.5072 50.6889 13.1952C50.3289 12.8832 49.8789 12.7272 49.3389 12.7272C48.8229 12.7272 48.3849 12.8772 48.0249 13.1772C47.6769 13.4772 47.4609 13.9032 47.3769 14.4552H51.2289Z" fill="white"/>
<rect y="37.4492" width="59" height="6" rx="3" fill="white"/>
</svg>
