<svg width="334" height="610" viewBox="0 0 334 610" fill="none" xmlns="http://www.w3.org/2000/svg">
<path fill-rule="evenodd" clip-rule="evenodd" d="M211.649 3.4423C204.794 10.5982 202.182 10.9904 177.665 8.5361L174.914 8.26078C162.305 6.99891 149.645 10.1022 139.049 17.0523C124.75 26.431 122.051 27.6928 117.79 27.0011C113.99 26.3847 112.191 26.9259 109.674 29.4424C106.959 32.1572 104.266 32.8199 92.8531 33.584C84.2939 34.1572 76.4997 38.7138 71.8013 45.891L71.6835 46.071C64.5015 57.0386 63.7099 57.752 56.6206 59.6362C49.2693 61.5883 49.0899 61.7678 46.4909 69.7659C44.8419 74.8381 40.7207 78.7196 35.5589 80.0619L32.4033 80.8825C19.6312 84.2036 20.0017 83.755 17.0669 99.5111C15.3087 108.953 14.7082 110.003 6.77514 117.49C1.79294 122.191 0.546907 129.633 3.72596 135.701L3.91566 136.063C7.47838 142.862 8.17659 150.802 5.85498 158.118L4.62185 162.004C1.28339 172.522 0.172006 178.071 1.0721 179.711C1.79421 181.023 5.68836 185.33 9.72867 189.279C15.5735 194.995 17.0727 197.421 17.0727 201.16C17.0727 204.207 18.2782 207.024 20.5038 209.174C23.809 212.368 23.8886 212.935 22.6687 224.788C21.9726 231.553 21.6513 237.748 21.9552 238.556C22.2591 239.363 28.3905 243.506 35.5812 247.762C42.7718 252.018 50.7974 257.711 53.4152 260.413C56.4083 263.501 57.748 267.831 57.0212 272.07L56.4064 275.655C53.9044 290.246 51.3358 294.719 37.8155 308.028C31.2529 314.488 25.1692 321.649 24.2981 323.939C22.8611 327.721 23.3126 328.972 29.1835 337.512L29.6705 338.22C33.172 343.313 32.6997 350.148 28.5309 354.71C19.9886 364.054 19.0958 366.944 21.8655 376.269C23.6614 382.314 23.686 383.952 22.0276 386.946C18.3534 393.58 19.4662 398.063 26.4789 404.877C32.6262 410.852 32.9908 411.648 32.9908 419.092C32.9908 423.43 33.412 430.051 33.9271 433.806C34.7679 439.948 35.6448 441.224 42.6488 446.512C47.6886 450.317 53.8763 452.288 60.1886 452.1L77.5298 451.581C93.3741 451.106 108.538 451.387 114.055 452.257C119.927 453.183 124.915 457.055 127.268 462.515L131.951 473.383C136.606 484.184 140.372 494.369 140.318 496.017C139.848 510.669 139.159 512.557 125.669 536.135C107.696 567.55 100.039 579.328 97.5938 579.328C94.5188 579.328 91.9458 583.215 92.0833 587.653C92.1513 589.84 90.4886 595.365 88.3888 599.932C86.2891 604.499 85.0156 608.683 85.5597 609.227C86.1053 609.771 126.757 597.416 175.901 581.771L249.52 558.333C259.891 555.032 270.841 553.948 281.658 555.154L298.974 557.083C317.522 559.151 333.113 560.426 333.622 559.918C334.13 559.409 330.793 555.199 326.204 550.563C320.995 545.3 317.702 540.682 317.438 538.27C316.918 533.535 312.75 528.68 309.207 528.68C306.654 528.68 297.649 516.562 288.504 500.823C286.733 497.773 288.933 493.949 292.461 493.949H293.28C298.885 493.949 304.253 491.682 308.161 487.663L310.492 485.267C315.695 479.915 320.141 476.584 322.076 476.584C323.803 476.584 327.679 475.311 330.687 473.753C334.417 471.824 343.16 470.127 358.145 468.421L360.43 468.161C372.771 466.756 383.641 459.396 389.528 448.46C396.821 434.907 400.619 429.543 406.489 424.488C422.23 410.939 439.014 395.782 441.945 392.471C444.094 390.044 446.082 383.47 448.71 370.102L449.788 364.621C451.509 355.864 455.88 347.849 462.31 341.66C467.742 336.431 473.573 330.951 475.267 329.48C478.328 326.828 478.334 326.705 476.07 311.39C473.924 296.861 473.942 295.641 476.382 290.233C478.448 285.649 478.765 282.594 477.958 275.047C476.987 265.98 477.162 265.214 482.318 255.993L483.924 253.12C486.299 248.875 486.564 243.767 484.642 239.298C480.733 230.212 480.749 229.966 486.122 217.803L486.89 216.064C489.192 210.85 488.333 204.782 484.675 200.412C481.283 196.361 478.698 191.76 478.698 189.771C478.698 187.845 477.801 185.042 476.703 183.541C475.473 181.858 474.981 178.773 475.422 175.493C476.031 170.947 475.405 169.357 471.116 164.558C467.902 160.964 466.245 156.241 466.509 151.427L466.774 146.591C467.196 138.901 463.642 131.532 457.361 127.073L451.483 122.901C441.022 115.475 432.702 105.424 427.362 93.7601L425.74 90.2178L423.342 84.9807C418.573 74.5632 410.341 66.12 400.048 61.0876C379.654 51.1185 364.173 41.4287 347.273 28.0517C338.549 21.1473 327.714 17.4585 316.59 17.6061L308.165 17.718C284.976 18.0233 282.201 17.7961 278.961 15.3259C276.991 13.8253 271.456 9.87901 266.659 6.55791C261.069 2.68913 254.182 1.17418 247.484 2.34021L245.676 2.65508C234.251 4.64629 232.805 4.60722 224.482 2.08202L220.942 1.00875C217.633 0.0052703 214.041 0.945873 211.649 3.4423ZM252.535 24.6988C258.027 28.2977 256.794 33.9733 246.998 50.2155C231.978 75.1187 184.397 149.481 183.84 148.924C183.549 148.634 188.307 118.536 194.412 82.0388L204.277 23.0702C205.082 18.2565 207.319 13.7969 210.695 10.2726C213.762 7.07251 218.581 6.29641 222.498 8.37154L232.552 13.6979C241.722 18.5558 250.715 23.5064 252.535 24.6988ZM257.063 10.4231C259.335 18.0074 259.17 20.7467 256.441 20.7467C253.677 20.7467 235.585 10.8167 235.585 9.29872C235.585 8.7112 239.656 7.56943 244.63 6.75906C249.605 5.95013 254.059 5.18461 254.531 5.05871C255.001 4.93282 256.141 7.34658 257.063 10.4231ZM273.305 16.5501C276.295 18.8655 276.499 19.495 274.657 20.7135C273.463 21.5036 271.744 22.1591 270.838 22.1721C267.887 22.2112 263.226 17.2274 262.21 12.944C261.838 11.3752 263.53 10.127 264.919 10.947L265.5 11.2899C267.856 12.682 271.368 15.0481 273.305 16.5501ZM180.396 12.737C191.03 13.873 200.107 15.174 200.562 15.6312C201.709 16.7773 180.642 141.248 179.014 142.955C178.202 143.805 177.701 143.48 177.701 142.102C177.701 140.878 173.468 111.715 168.295 77.2952C158.34 11.0627 158.282 10.6011 159.974 10.646C160.57 10.6619 169.761 11.6025 180.396 12.737ZM162.421 64.5346C174.646 147.401 175.895 157.46 174.017 157.929C173.067 158.166 159.019 155.374 142.798 151.724C126.576 148.073 111.514 144.704 109.326 144.238C107.137 143.771 105.346 142.785 105.346 142.049C105.346 138.694 134.923 25.3268 136.056 24.3341C136.278 24.1417 140.354 21.2706 145.115 17.9553L150.632 14.1158C152.16 13.0522 154.281 13.8281 154.762 15.6269C155.306 17.6601 158.753 39.6691 162.421 64.5346ZM342.257 34.0963C348.759 41.4389 353.855 47.6701 353.581 47.9436C353.029 48.4949 281.827 30.4351 276.158 28.305C274.753 27.7773 274.61 25.8465 275.922 25.1178L276.158 24.9868C279.363 23.2054 285.902 22.6671 324.615 20.9971C330.236 20.7554 330.841 21.204 342.257 34.0963ZM117.075 78.874C109.861 106.2 103.431 130.424 102.789 132.708C101.777 136.308 100.529 133.421 93.4059 111.001C88.8866 96.779 84.8 83.4714 84.3239 81.4266C83.5917 78.2864 85.6335 75.0941 97.5331 60.7736C106.796 49.6266 112.887 43.5343 115.351 42.9511C120.043 41.8397 124.158 38.3435 124.158 35.4696C124.158 33.1296 128.547 27.5481 129.578 28.5785C129.915 28.9156 124.289 51.5483 117.075 78.874ZM312.122 42.3722C333.922 47.8553 352.323 53.211 353.016 54.2718C356.191 59.1413 355.86 63.3002 351.33 75.4313C342.927 97.9352 320.941 153.097 319.487 155.327C318.228 157.256 317.909 157.256 316.624 155.327C314.927 152.779 289.83 89.6158 279.123 60.9415C271.255 39.8745 269.159 32.299 271.22 32.3626C271.916 32.3843 290.322 36.8877 312.122 42.3722ZM107.712 38.8239C108.227 40.1654 104.24 46.2346 97.1756 54.8636C90.9241 62.4985 84.7031 70.1566 83.35 71.8801C80.5658 75.4255 81.1895 75.8944 72.6443 63.8342C70.33 60.5679 70.202 56.2316 72.3196 52.8344L75.6109 47.5543L75.9223 47.0546C79.9499 40.5925 87.0258 36.6649 94.6403 36.6649C104.158 36.6649 107.068 37.1453 107.712 38.8239ZM263.831 117.174L264.723 169.486C264.812 174.695 260.044 178.641 254.943 177.578C241.928 174.868 184.372 160.888 183.67 160.269C183.076 159.742 221.242 98.9438 245.577 61.6462L256.36 45.123C257.893 42.7737 261.525 43.6364 261.839 46.4241C262.349 50.9753 263.247 82.813 263.831 117.174ZM356.418 41.0062C357.858 42.598 358.712 43.9004 358.314 43.9004C357.916 43.9004 356.411 42.598 354.971 41.0062C353.531 39.4144 352.678 38.112 353.075 38.112C353.473 38.112 354.978 39.4144 356.418 41.0062ZM290.52 102.777C312.089 158.546 312.415 159.556 310.205 163.828C307.897 168.29 306.612 168.814 276.677 177.503C272.948 178.585 269.206 175.84 269.12 171.958L268.353 137.46C267.565 101.89 266.99 50.9044 267.327 46.1912C267.379 45.4618 267.685 45.1362 268.006 45.4676C268.327 45.8004 278.459 71.5892 290.52 102.777ZM421.507 92.4738C431.191 113.328 431.223 113.438 429.095 118.773C426.36 125.63 423.348 127.638 419.978 124.854C418.59 123.707 407.026 108.767 394.283 91.6548C381.54 74.5428 370.52 59.7592 369.797 58.8026C369.072 57.8461 378.223 60.3178 390.131 64.2973C403.952 68.9148 415.262 79.021 421.398 92.238L421.507 92.4738ZM68.7951 65.7372C70.9903 68.1958 73.9149 71.9843 75.294 74.1564C77.7874 78.0809 77.757 78.1808 70.7023 89.584C56.1025 113.185 45.2232 128.556 43.1206 128.556C41.685 128.556 38.1758 121.701 32.7564 108.314C28.2501 97.1798 24.8263 87.6463 25.1461 87.1282C25.4659 86.6102 29.9563 85.3454 35.1224 84.318C40.2886 83.292 45.1841 82.0388 46.0017 81.5337C46.8194 81.0272 48.621 77.1273 50.0073 72.8656C52.165 66.2292 53.2546 64.8544 57.5916 63.3002C64.584 60.7953 64.3365 60.7418 68.7951 65.7372ZM386.68 89.1903C411.609 122.657 416.392 130 415.495 133.433C414.962 135.466 405.168 138.968 371.127 149.302C347.099 156.595 326.634 162.563 325.65 162.563C324.664 162.563 323.858 161.909 323.858 161.108C323.858 157.666 354.699 77.628 360.24 66.6922C361.752 63.7083 363.639 61.2656 364.434 61.2656C365.228 61.2656 375.239 73.8322 386.68 89.1903ZM97.1756 136.877C98.1409 140.755 98.0077 140.856 91.9328 140.856C81.8219 140.856 51.424 136.715 49.8279 135.118C47.7643 133.055 50.673 127.471 66.5101 103.103C71.8995 94.8104 84.5005 96.4944 87.5233 105.911L88.0791 107.642C92.5391 121.533 96.6315 134.689 97.1756 136.877ZM30.58 113.27C34.2035 122.372 36.7967 130.421 36.3423 131.156C35.299 132.845 29.0952 131.844 15.4881 127.792L13.51 127.203C9.6813 126.062 8.57185 121.174 11.5332 118.493C17.4504 113.137 18.4996 111.273 20.0523 103.382C21.0262 98.4301 22.3112 94.9064 22.9074 95.5504C23.5036 96.1929 26.9564 104.168 30.58 113.27ZM447.911 126.055L449.281 127.059C451.927 128.999 450.658 133.188 447.38 133.333C434.135 133.917 430.944 132.998 430.944 128.596C430.944 123.154 434.025 117.465 436.466 118.402C437.628 118.847 442.778 122.291 447.911 126.055ZM32.5032 136.515C32.7709 136.515 32.9908 137.736 32.9908 139.228C32.9908 140.971 29.1517 144.596 22.2635 149.358C16.3622 153.437 11.2438 156.774 10.8878 156.774C10.5304 156.774 10.8907 154.332 11.688 151.346C12.9687 146.551 12.6156 144.885 8.65347 137.037C6.96145 133.685 10.1032 129.936 13.6998 131.016L18.0929 132.334C25.7495 134.634 32.234 136.515 32.5032 136.515ZM462.78 145.836C462.78 150.167 462.213 154.06 461.521 154.488C460.391 155.187 438.01 142.532 434.634 139.285C433.801 138.483 439.071 137.962 448.02 137.962H454.907C459.255 137.962 462.78 141.487 462.78 145.836ZM75.6804 143.196C86.8231 144.5 96.1916 145.789 96.4998 146.061C97.1915 146.675 87.3484 158.907 54.7205 197.982C40.7791 214.677 28.5584 229.329 27.5642 230.542C24.3994 234.4 26.9781 213.21 30.2385 208.566C33.7187 203.61 33.7187 200.441 30.237 196.662C27.5208 193.715 27.5743 193.377 34.3902 170.726C40.1395 151.62 41.9947 147.206 45.4649 144.368C50.5124 140.24 50.427 140.244 75.6804 143.196ZM415.338 145.559C413.789 148.145 408.771 156.611 404.189 164.372C399.607 172.132 395.444 178.481 394.939 178.481C392.953 178.481 334.54 168.206 331.881 167.39C329.972 166.803 334.215 164.959 344.905 161.728C386.755 149.079 414.48 140.994 416.23 140.929C417.639 140.875 417.401 142.117 415.338 145.559ZM445.21 151.299C458.681 159.436 471.463 170.764 471.463 174.564C471.463 175.886 469.671 178.076 467.483 179.432C465.295 180.788 462.834 182.683 462.016 183.644C460.857 185.004 454.772 184.796 434.521 182.699C420.217 181.217 407.049 179.989 405.258 179.967C403.466 179.945 402.002 179.297 402.002 178.526C402.002 176.86 415.719 153.287 419.71 148.092C422.646 144.271 427.407 142.182 430.817 143.218C431.941 143.559 438.417 147.196 445.21 151.299ZM37.3321 146.785C37.3321 149.595 24.1042 192.182 22.8134 193.526C22.0927 194.277 17.7644 191.15 12.565 186.124L8.4877 182.184C5.45433 179.252 4.27237 174.893 5.40907 170.83C7.10363 164.778 8.39878 163.45 21.1188 154.717C35.2657 145.004 37.3321 143.992 37.3321 146.785ZM150.077 169.701C151.917 171.089 152.882 172.972 152.383 174.199C151.241 177.006 139.322 186.009 90.1196 221.231L57.3904 244.66C52.2204 248.361 45.3628 248.694 39.8588 245.511C26.1186 237.565 26.4977 238.349 32.7246 230.768C35.7534 227.08 52.683 206.699 70.3463 185.473L86.8145 165.684C96.0469 154.591 111.574 151.071 124.688 157.099C136.912 162.716 148.336 168.387 150.077 169.701ZM146.588 156.703C156.935 159.122 166.943 161.46 168.827 161.901C174.626 163.259 170.72 164.713 160.582 164.971C151.717 165.197 149.75 164.638 136.459 158.123C128.5 154.222 123.29 151.319 124.882 151.669C126.474 152.021 136.242 154.287 146.588 156.703ZM200.646 185.711C221.289 204.946 227.147 210.961 222.424 208.076C211.762 201.564 176.695 179.326 174.005 177.37C172.108 175.992 170.536 173.76 170.51 172.413C170.47 170.179 175.487 165.457 177.902 165.457C178.455 165.457 188.689 174.571 200.646 185.711ZM225.742 175.009C245.084 179.468 261.403 183.575 262.005 184.136C263.215 185.265 251.169 210.989 247.544 215.02C246.291 216.414 244.378 217.553 243.291 217.553C240.239 217.553 185.893 167.06 188.841 166.962C189.793 166.93 206.399 170.551 225.742 175.009ZM360.017 176.966C377.728 180.112 392.479 182.947 392.797 183.265C393.37 183.837 374.899 232.438 365.855 254.159C363.272 260.364 360.467 265.21 359.625 264.929C357.315 264.159 323.343 176.124 324.346 173.51C324.824 172.264 325.799 171.245 326.514 171.245C327.229 171.245 342.305 173.82 360.017 176.966ZM306.493 173.345C306.493 174.064 285.412 191.173 265.43 206.669C262.399 209.02 258.293 205.602 260.056 202.195L261.089 200.199C266.523 189.7 275.991 181.861 287.319 178.482L287.681 178.374C297.63 175.406 305.933 172.914 306.131 172.836C306.33 172.756 306.493 172.986 306.493 173.345ZM322.145 184.993C334.02 214.317 355.258 268.999 354.923 269.388C353.935 270.541 263.636 231.456 256.528 226.798C254.597 225.534 254.272 222.835 255.848 221.148L256.147 220.827C260.187 216.501 290.695 191.652 303.489 182.269C315.442 173.501 317.62 173.82 322.145 184.993ZM201.436 199.737C233.833 220.289 236.449 222.267 237.675 227.148C238.754 231.451 238.572 231.734 191.285 299.641C168.852 331.856 167.846 333.059 167.061 328.583C165.861 321.748 164.082 183.565 165.159 180.76C166.006 178.553 166.406 178.552 170.66 180.751C173.183 182.057 187.032 190.6 201.436 199.737ZM160.43 218.566C161.038 238.304 161.903 273.127 162.35 295.951L162.752 316.433C162.943 326.18 152.9 332.791 144.023 328.762C133.495 323.984 110.066 313.199 91.9603 304.794C59.3296 289.646 59.0387 289.471 59.056 285.006C59.0995 273.732 62.613 266.281 72.2059 257.128C102.675 228.056 156.853 180.207 158.003 181.358C158.728 182.083 159.821 198.827 160.43 218.566ZM435.685 187.016C456.393 189.24 460.448 190.079 463.272 192.735C465.094 194.445 467.958 195.846 469.637 195.846C473.037 195.846 480.823 201.834 483.203 206.281C484.43 208.575 483.817 211.304 480.205 219.587L478.671 223.105C476.751 227.508 476.735 232.509 478.627 236.924C482.54 246.05 482.451 246.874 476.476 256.71L476.237 257.102C473.095 262.275 471.965 268.423 473.062 274.375C474.166 280.364 473.238 286.551 470.427 291.954L468.712 295.25C465.384 301.65 461.783 308.083 460.711 309.549C458.883 312.048 458.572 311.904 455.724 307.219C453.267 303.181 415.295 218.641 403.585 191.143L402.764 189.216C401.772 186.887 403.502 184.307 406.034 184.34C408.989 184.378 422.332 185.583 435.685 187.016ZM418.327 235.641C438.044 280.471 451.203 311.238 451.203 312.506C451.203 314.009 446.395 312.182 422.658 301.66C379.031 282.321 368.719 277.078 368.719 274.24C368.719 272.829 368.018 270.974 367.16 270.116C365.607 268.563 366.882 264.883 389.02 207.035C393.212 196.078 396.797 187.287 396.983 187.499C397.17 187.712 406.775 209.377 418.327 235.641ZM124.854 203.045C122.481 205.413 107.191 219.668 90.8749 234.724L65.2415 258.377C62.9689 260.474 59.4627 260.46 57.2067 258.345C55.0056 256.28 53.3776 254.078 53.5889 253.449C53.9738 252.306 127.16 198.887 128.472 198.791C128.854 198.764 127.226 200.678 124.854 203.045ZM298.868 251.007C343.497 270.883 351.353 274.735 351.353 276.733C351.353 277.956 328.515 292.145 305.046 305.503C291.507 313.209 286.03 315.608 283.273 315.041C279.887 314.345 278.513 311.221 266.309 276.409C252.694 237.578 250.522 230.577 252.091 230.577C252.587 230.577 273.637 239.77 298.868 251.007ZM262.284 278.099C274.402 311.917 275.389 316.283 272.062 321.365C271.417 322.35 257.248 326.686 240.575 331C199.428 341.646 202.302 341.131 202.302 337.852C202.302 335.649 226.646 275.364 241.744 240.184L242.615 238.154C243.465 236.173 246.243 236.087 247.213 238.013C248.56 240.688 255.342 258.727 262.284 278.099ZM219.819 282.086C198.289 333.978 197.652 335.257 191.589 338.834C187.376 341.32 184.958 341.763 179.481 341.053C175.716 340.565 171.881 339.765 170.956 339.276C169.901 338.717 181.197 321.353 201.345 292.563C218.984 267.362 233.585 246.91 233.792 247.117C234.001 247.324 227.712 263.06 219.819 282.086ZM357.434 285.205C358.997 287.015 361.134 300.942 364.926 334.044C367.843 359.513 370.651 385.887 371.163 392.652C371.501 397.108 366.237 399.703 362.908 396.721L362.087 395.985C356.582 391.053 338.076 373.764 320.964 357.567C294.338 332.361 289.852 327.509 289.852 323.91C289.852 319.974 291.707 318.614 318.794 302.702C334.712 293.35 348.712 285.057 349.906 284.271C353.126 282.153 354.997 282.384 357.434 285.205ZM409.259 300.399C454.145 320.73 453.649 320.29 444.49 331.526C435.853 342.126 391.55 391.163 384.195 398.265L382.242 400.152C380.314 402.014 377.086 400.917 376.692 398.265C376.174 394.781 372.95 367.834 369.528 338.386C363.272 284.559 363.233 282.758 368.334 282.694C369.316 282.682 387.732 290.649 409.259 300.399ZM92.5116 309.266C145.648 334.073 158.889 340.542 158.882 341.685C158.874 342.675 115.979 372.288 99.9743 382.352C91.5884 387.625 88.2181 387.48 84.418 381.68C79.0405 373.472 47.5762 305.358 48.4647 303.846C49.9277 301.356 56.4368 292.802 56.868 292.802C57.0764 292.802 73.1161 300.211 92.5116 309.266ZM471.964 314.87C473.003 322.89 470.33 324.331 466.175 317.99C463.848 314.438 463.86 313.967 466.408 309.238C469.524 303.451 470.626 304.571 471.964 314.87ZM63.2469 347.621C72.1306 366.231 79.1534 381.702 78.8539 382.001C78.5543 382.301 70.0917 374.691 60.0473 365.091C39.1295 345.094 26.819 329.803 28.0635 325.362C28.5092 323.77 32.1211 319.288 36.0891 315.403C42.876 308.759 43.4172 308.502 45.2 311.062C46.242 312.559 54.3631 329.011 63.2469 347.621ZM470.016 326.496C470.016 326.722 466.479 330.401 462.157 334.67L458.708 338.076C457.464 339.304 455.393 338.118 455.823 336.423C456.863 332.324 458.555 329.775 461.149 328.404C464.552 326.603 470.016 325.428 470.016 326.496ZM271.763 328.65C271.763 329.848 270.465 331.519 251.013 355.375L249.592 357.117C243.216 364.937 231.934 366.618 223.554 360.997C205.601 348.951 203.86 347.161 207.967 344.963C210.928 343.38 266.545 327.833 269.954 327.637C270.949 327.579 271.763 328.035 271.763 328.65ZM332.311 374.523C350.08 391.214 365.23 406.013 365.978 407.408C367.803 410.819 366.729 410.99 331.187 412.898L307.596 414.166C303.788 414.37 300.073 412.948 297.376 410.252C293.372 406.246 292.953 404.638 289.727 380.883C287.85 367.06 285.876 349.89 285.339 342.727L285.16 340.326C284.875 336.531 289.39 334.354 292.183 336.939C296.484 340.918 314.541 357.83 332.311 374.523ZM283.604 363.829C287.665 396.241 288.468 408.57 286.522 408.57C285.517 408.57 261.782 389.564 247.398 377.24L246.718 376.658C244.391 374.665 244.03 371.199 245.896 368.769C257.769 353.295 276.706 331.833 278.082 332.29C279.065 332.616 281.277 345.257 283.604 363.829ZM451.173 337.758C450.387 340.491 447.743 352.169 445.296 363.71C442.849 375.251 440.084 385.435 439.152 386.343C437.303 388.141 387.508 406.135 386.677 405.304C386.396 405.025 392.101 397.993 399.352 389.68C421.104 364.743 451.464 331.652 452.051 332.24C452.354 332.542 451.959 335.026 451.173 337.758ZM184.937 345.724C186.13 346.063 188.582 348.511 190.384 351.165C193.644 355.965 193.657 356.223 193.278 403.559C193.224 410.281 183.598 411.352 182.068 404.806L180.734 399.099C174.046 370.482 168.25 346.18 167.854 345.093C167.276 343.506 168.667 343.313 174.95 344.113C179.249 344.66 183.743 345.384 184.937 345.724ZM169.516 368.775C172.354 380.713 177.97 405.459 181.996 423.765C186.02 442.071 189.644 458.513 190.048 460.304C190.45 462.096 190.407 463.56 189.949 463.56C187.285 463.56 96.6359 398.604 95.6243 395.97C95.2206 394.918 95.7777 392.763 96.8631 391.182C99.478 387.367 162.243 344.864 163.431 346.105C163.939 346.634 166.677 356.836 169.516 368.775ZM59.5611 369.96C74.0625 383.862 79.4732 389.955 79.0883 391.95C78.6715 394.115 73.8672 396.228 56.8594 401.722L42.7287 406.288C38.1107 407.779 33.0465 406.467 29.7349 402.919C23.9768 396.75 23.139 392.778 26.3675 386.948C28.0171 383.969 28.0085 382.518 26.3168 377.721C23.0637 368.501 23.741 365.64 31.0184 357.859C34.7086 353.915 38.1281 350.696 38.6157 350.709C39.1034 350.721 48.5298 359.385 59.5611 369.96ZM219.139 363.147C233.509 372.717 235.553 374.568 234.726 377.256C233.587 380.959 201.117 454.657 199.251 457.772C198.471 459.074 198.098 439.105 198.318 407.847C198.648 360.939 199.199 352.133 201.813 352.133C202.245 352.133 210.042 357.09 219.139 363.147ZM261.921 395.226C274.744 405.789 282.784 413.437 283.057 415.331C283.35 417.35 282.121 419.363 279.44 421.257C275.391 424.118 230.695 449.601 211.963 459.731C200.147 466.12 200.002 467.995 213.774 436.065C230.949 396.245 239.18 378.235 240.214 378.207C240.772 378.193 250.54 385.852 261.921 395.226ZM421.685 404.91C415.399 410.78 408.102 416.741 405.469 418.159C400.847 420.648 400.449 420.639 393.865 417.908C385.651 414.503 384.452 412.037 389.946 409.852C398.543 406.431 431.701 394.232 432.391 394.237C432.789 394.238 427.972 399.042 421.685 404.91ZM80.7452 399.355C80.7452 402.034 51.7178 446.195 49.9581 446.195C49.2375 446.195 46.1161 444.403 43.0207 442.215C39.4909 439.719 37.3881 435.668 37.3777 431.344L37.3625 425.106C37.3444 417.283 42.3787 410.343 49.8209 407.931L57.9534 405.295C80.0115 398.147 80.7452 397.956 80.7452 399.355ZM92.5261 406.761C95.7951 410.336 114.147 438.229 117.995 445.471C119.513 448.328 119.125 448.361 88.3874 448.069C71.2566 447.907 56.9722 447.506 56.6452 447.177C55.884 446.416 78.6296 410.366 82.6033 406.038C86.4786 401.814 88.1095 401.932 92.5261 406.761ZM138.23 432.925C180.158 463.421 188.314 470.013 187.465 472.716C186.853 474.667 165.224 489.863 156.963 494.147C152.048 496.696 151.06 496.787 148.264 494.956C146.531 493.819 142.89 487.756 140.175 481.481C129.5 456.804 123.838 446.6 101.928 412.55C98.9831 407.973 97.083 404.239 97.7038 404.251C98.3261 404.264 116.562 417.166 138.23 432.925ZM370.898 419.305C374.472 422.617 374.72 423.773 375.533 441.011C376.006 451.025 376.032 459.219 375.589 459.219C374.579 459.219 308.169 423.312 304.556 420.813C302.26 419.224 303.353 418.85 312.515 418.095C331.068 416.564 335.809 416.316 351.64 416.059C366.186 415.822 367.351 416.017 370.898 419.305ZM391.425 421.517C394.704 423.005 396.033 426.961 394.319 430.127L389.255 439.48L388.573 440.739C386.349 444.847 380.142 443.531 379.776 438.874C379.093 430.174 378.909 422.076 379.369 420.878C380.479 417.985 384.065 418.176 391.425 421.517ZM333.922 441.966C353.06 452.375 368.719 461.372 368.719 461.96C368.719 462.546 361.066 463.822 351.715 464.793C340.939 465.913 332.557 467.6 328.828 469.402C325.592 470.963 321.863 472.243 320.54 472.243C319.218 472.243 313.788 473.879 308.474 475.879C303.161 477.879 298.643 479.345 298.436 479.135C297.536 478.229 294.709 427.116 295.452 425.181C295.903 424.005 296.915 423.041 297.699 423.041C298.484 423.041 314.784 431.557 333.922 441.966ZM289.831 425.902C290.927 427.675 294.138 479.293 293.21 480.221C292.451 480.979 218.657 472.889 210.079 471.107C208.153 470.707 207.732 468.145 209.428 467.149L223.357 458.976C250.176 443.238 275.836 428.812 281.036 426.549C286.447 424.195 288.674 424.03 289.831 425.902ZM249.084 480.184C293.578 485.581 305.684 488.552 286.234 489.304C279.395 489.568 273.071 493.01 269.136 498.61L266.779 501.965C262.048 508.697 256.393 515.915 254.214 518.003C251.88 520.239 248.33 520.614 245.581 518.915L245.25 518.711C241.078 516.132 211.958 486.172 205.36 477.669C202.805 474.377 199.764 474.202 249.084 480.184ZM202.227 482.736C208.027 486.798 242.832 524.071 240.285 523.49C212.481 517.156 173.247 507.633 165.571 505.354C153.789 501.853 153.329 502.726 174.489 488.415C188.02 479.264 189.803 478.455 194.237 479.455C196.919 480.058 200.513 481.536 202.227 482.736ZM304.684 484.181C302.506 487.46 300.427 488.049 299.615 485.614C299.374 484.89 300.66 483.584 302.473 482.71C307.062 480.498 307.11 480.53 304.684 484.181ZM281.706 523.985C284.196 536.924 286.234 548.388 286.234 549.46C286.234 550.922 284.334 551.26 278.637 550.817C266.067 549.839 265.238 549.419 261.435 542.1C256.629 532.854 256.973 523.555 262.429 515.219C269.324 504.682 275.01 498.06 276.113 499.282C276.699 499.93 279.215 511.047 281.706 523.985ZM292.037 515.187C299.439 526.726 301.054 530.351 301.223 535.795C301.41 541.802 301.873 542.611 306.333 544.716C309.029 545.988 312.17 548.815 313.313 550.997C314.191 552.672 312.824 554.642 310.948 554.408L307.033 553.919C290.464 551.848 291.786 553.364 287.449 531.47C282.775 507.88 281.673 501.185 282.458 501.185C282.787 501.185 287.098 507.485 292.037 515.187ZM198.684 518.009C220.174 523.302 238.026 527.868 238.359 528.156C238.691 528.444 238.691 528.947 238.359 529.274C238.026 529.603 212.034 538.107 180.595 548.175C149.157 558.242 120.626 567.393 117.192 568.507C114.961 569.231 112.999 566.845 114.139 564.796L116.35 560.821C119.322 555.48 126.844 542.534 133.068 532.054C142.743 515.76 145.013 512.861 148.726 512.045C151.113 511.521 153.439 510.491 153.893 509.756C155.283 507.507 158.314 508.066 198.684 518.009ZM243.831 536.277C243.42 537.273 241.016 542.714 238.488 548.37C235.562 554.915 229.992 559.906 223.167 562.1L178.896 576.325L131.212 591.648C126.472 593.172 121.362 593.084 116.677 591.4C110.923 589.331 109.033 587.801 107.399 583.888C106.269 581.186 105.346 578.745 105.346 578.466C105.346 576.806 119.643 571.879 174.083 554.777C207.511 544.275 235.513 535.462 236.309 535.19C240.023 533.922 244.534 534.575 243.831 536.277ZM257.225 544.086C258.853 546.847 260.186 549.34 260.186 549.628C260.186 550.593 241.197 556.481 240.46 555.743C239.546 554.829 247.014 539.87 249.029 538.582C251.476 537.018 254.091 538.773 257.225 544.086ZM323.191 554.429C321.786 555.836 318.43 553.366 317.639 550.343C317.398 549.423 318.511 548.761 319.204 549.412L320.328 550.467C322.264 552.286 323.552 554.069 323.191 554.429ZM112.673 594.048C114.259 594.601 114.246 596.85 112.654 597.385L105.356 599.837C98.6575 602.087 92.6216 603.929 91.9444 603.929C91.2657 603.929 91.8648 601.975 93.2757 599.588C95.0426 596.596 96.9803 595.239 99.5084 595.225C101.526 595.212 104.152 594.571 105.346 593.799C106.54 593.028 107.582 592.387 107.663 592.374C107.742 592.362 109.997 593.115 112.673 594.048Z" fill="white" fill-opacity="0.17"/>
</svg>
