<svg width="305" height="610" viewBox="0 0 305 610" fill="none" xmlns="http://www.w3.org/2000/svg">
<path fill-rule="evenodd" clip-rule="evenodd" d="M93.5215 3.4423C100.376 10.5982 102.988 10.9904 127.505 8.5361L130.256 8.26078C142.865 6.99891 155.525 10.1022 166.121 17.0523C180.42 26.431 183.119 27.6928 187.381 27.0011C191.181 26.3847 192.979 26.9259 195.496 29.4424C198.211 32.1572 200.904 32.8199 212.317 33.584C220.876 34.1572 228.67 38.7138 233.369 45.891L233.487 46.071C240.669 57.0386 241.46 57.752 248.55 59.6362C255.901 61.5883 256.08 61.7678 258.679 69.7659C260.328 74.8381 264.449 78.7196 269.611 80.0619L272.767 80.8825C285.539 84.2036 285.169 83.755 288.103 99.5111C289.861 108.953 290.462 110.003 298.395 117.49C303.377 122.191 304.623 129.633 301.444 135.701L301.255 136.063C297.692 142.862 296.994 150.802 299.315 158.118L300.548 162.004C303.887 172.522 304.998 178.071 304.098 179.711C303.376 181.023 299.482 185.33 295.441 189.279C289.597 194.995 288.097 197.421 288.097 201.16C288.097 204.207 286.892 207.024 284.666 209.174C281.361 212.368 281.282 212.935 282.502 224.788C283.198 231.553 283.519 237.748 283.215 238.556C282.911 239.363 276.78 243.506 269.589 247.762C262.398 252.018 254.373 257.711 251.755 260.413C248.762 263.501 247.422 267.831 248.149 272.07L248.764 275.655C251.266 290.246 253.834 294.719 267.355 308.028C273.917 314.488 280.001 321.649 280.872 323.939C282.309 327.721 281.858 328.972 275.987 337.512L275.5 338.22C271.998 343.313 272.47 350.148 276.639 354.71C285.182 364.054 286.074 366.944 283.305 376.269C281.509 382.314 281.484 383.952 283.143 386.946C286.817 393.58 285.704 398.063 278.691 404.877C272.544 410.852 272.179 411.648 272.179 419.092C272.179 423.43 271.758 430.051 271.243 433.806C270.402 439.948 269.525 441.224 262.521 446.512C257.482 450.317 251.294 452.288 244.982 452.1L227.64 451.581C211.796 451.106 196.632 451.387 191.116 452.257C185.243 453.183 180.255 457.055 177.902 462.515L173.219 473.383C168.564 484.184 164.799 494.369 164.852 496.017C165.322 510.669 166.011 512.557 179.501 536.135C197.474 567.55 205.131 579.328 207.576 579.328C210.651 579.328 213.224 583.215 213.087 587.653C213.019 589.84 214.682 595.365 216.781 599.932C218.881 604.499 220.155 608.683 219.61 609.227C219.065 609.771 178.413 597.416 129.269 581.771L55.6499 558.333C45.2789 555.032 34.3294 553.948 23.5125 555.154L6.19611 557.083C-12.3514 559.151 -27.9425 560.426 -28.4519 559.918C-28.9598 559.409 -25.6228 555.199 -21.0341 550.563C-15.8245 545.3 -12.5323 540.682 -12.2675 538.27C-11.748 533.535 -7.58032 528.68 -4.03638 528.68C-1.48367 528.68 7.52164 516.562 16.6659 500.823C18.4377 497.773 16.2369 493.949 12.7093 493.949H11.8904C6.28488 493.949 0.917633 491.682 -2.99048 487.663L-5.32141 485.267C-10.5252 479.915 -14.9707 476.584 -16.9055 476.584C-18.6333 476.584 -22.5086 475.311 -25.5172 473.753C-29.2463 471.824 -37.9897 470.127 -52.9745 468.421L-55.2597 468.161C-67.6006 466.756 -78.471 459.396 -84.3578 448.46C-91.6512 434.907 -95.4484 429.543 -101.319 424.488C-117.059 410.939 -133.844 395.782 -136.775 392.471C-138.924 390.044 -140.912 383.47 -143.54 370.102L-144.617 364.621C-146.339 355.864 -150.71 347.849 -157.14 341.66C-162.572 336.431 -168.403 330.951 -170.097 329.48C-173.158 326.828 -173.164 326.705 -170.9 311.39C-168.754 296.861 -168.772 295.641 -171.211 290.233C-173.278 285.649 -173.595 282.594 -172.787 275.047C-171.816 265.98 -171.991 265.214 -177.147 255.993L-178.754 253.12C-181.129 248.875 -181.394 243.767 -179.471 239.298C-175.563 230.212 -175.579 229.966 -180.952 217.803L-181.72 216.064C-184.022 210.85 -183.163 204.782 -179.505 200.412C-176.113 196.361 -173.528 191.76 -173.528 189.771C-173.528 187.845 -172.631 185.042 -171.533 183.541C-170.303 181.858 -169.811 178.773 -170.252 175.493C-170.861 170.947 -170.235 169.357 -165.945 164.558C-162.732 160.964 -161.075 156.241 -161.339 151.427L-161.604 146.591C-162.026 138.901 -158.472 131.532 -152.191 127.073L-146.313 122.901C-135.852 115.475 -127.532 105.424 -122.192 93.7601L-120.57 90.2178L-118.172 84.9807C-113.403 74.5632 -105.171 66.12 -94.8783 61.0876C-74.4842 51.1185 -59.0031 41.4287 -42.1024 28.0517C-33.3792 21.1473 -22.5438 17.4585 -11.4198 17.6061L-2.99445 17.718C20.1939 18.0233 22.9695 17.7961 26.2095 15.3259C28.179 13.8253 33.7142 9.87901 38.5114 6.55791C44.1012 2.68913 50.9885 1.17418 57.6858 2.34021L59.4943 2.65508C70.9192 4.64629 72.3649 4.60722 80.6886 2.08202L84.2278 1.00875C87.5368 0.0052703 91.1289 0.945873 93.5215 3.4423ZM52.635 24.6988C47.1433 28.2977 48.3763 33.9733 58.1717 50.2155C73.1926 75.1187 120.773 149.481 121.33 148.924C121.621 148.634 116.863 118.536 110.758 82.0388L100.893 23.0702C100.088 18.2565 97.8514 13.7969 94.4751 10.2726C91.4077 7.07251 86.5893 6.29641 82.6722 8.37154L72.6181 13.6979C63.4478 18.5558 54.4555 23.5064 52.635 24.6988ZM48.1071 10.4231C45.8351 18.0074 46.0001 20.7467 48.7293 20.7467C51.4933 20.7467 69.585 10.8167 69.585 9.29872C69.585 8.7112 65.5143 7.56943 60.5406 6.75906C55.5654 5.95013 51.1112 5.18461 50.6395 5.05871C50.1692 4.93282 49.0289 7.34658 48.1071 10.4231ZM31.8648 16.5501C28.8751 18.8655 28.671 19.495 30.5132 20.7135C31.7071 21.5036 33.4262 22.1591 34.3321 22.1721C37.2827 22.2112 41.9439 17.2274 42.9597 12.944C43.3325 11.3752 41.6397 10.127 40.2513 10.947L39.6705 11.2899C37.3146 12.682 33.8025 15.0481 31.8648 16.5501ZM124.775 12.737C114.14 13.873 105.064 15.174 104.608 15.6312C103.462 16.7773 124.529 141.248 126.157 142.955C126.968 143.805 127.469 143.48 127.469 142.102C127.469 140.878 131.702 111.715 136.875 77.2952C146.83 11.0627 146.888 10.6011 145.196 10.646C144.6 10.6619 135.409 11.6025 124.775 12.737ZM142.749 64.5346C130.524 147.401 129.275 157.46 131.153 157.929C132.103 158.166 146.151 155.374 162.372 151.724C178.594 148.073 193.657 144.704 195.845 144.238C198.033 143.771 199.824 142.785 199.824 142.049C199.824 138.694 170.247 25.3268 169.114 24.3341C168.892 24.1417 164.816 21.2706 160.055 17.9553L154.538 14.1158C153.01 13.0522 150.889 13.8281 150.409 15.6269C149.864 17.6601 146.417 39.6691 142.749 64.5346ZM-37.0867 34.0963C-43.5886 41.4389 -48.6853 47.6701 -48.4103 47.9436C-47.859 48.4949 23.3428 30.4351 29.0126 28.305C30.4175 27.7773 30.5604 25.8465 29.2484 25.1178L29.0126 24.9868C25.8073 23.2054 19.2678 22.6671 -19.4451 20.9971C-25.0657 20.7554 -25.6705 21.204 -37.0867 34.0963ZM188.095 78.874C195.309 106.2 201.739 130.424 202.381 132.708C203.393 136.308 204.642 133.421 211.764 111.001C216.284 96.779 220.37 83.4714 220.846 81.4266C221.578 78.2864 219.537 75.0941 207.637 60.7736C198.374 49.6266 192.283 43.5343 189.819 42.9511C185.127 41.8397 181.012 38.3435 181.012 35.4696C181.012 33.1296 176.623 27.5481 175.592 28.5785C175.255 28.9156 180.882 51.5483 188.095 78.874ZM-6.9523 42.3722C-28.7515 47.8553 -47.1528 53.211 -47.8459 54.2718C-51.0209 59.1413 -50.6895 63.3002 -46.1601 75.4313C-37.7568 97.9352 -15.7709 153.097 -14.3166 155.327C-13.0576 157.256 -12.7393 157.256 -11.4542 155.327C-9.75677 152.779 15.3403 89.6158 26.0475 60.9415C33.9153 39.8745 36.0107 32.299 33.9501 32.3626C33.254 32.3843 14.8483 36.8877 -6.9523 42.3722ZM197.458 38.8239C196.943 40.1654 200.93 46.2346 207.995 54.8636C214.246 62.4985 220.467 70.1566 221.82 71.8801C224.604 75.4255 223.981 75.8944 232.526 63.8342C234.84 60.5679 234.968 56.2316 232.851 52.8344L229.559 47.5543L229.248 47.0546C225.22 40.5925 218.144 36.6649 210.53 36.6649C201.012 36.6649 198.102 37.1453 197.458 38.8239ZM41.339 117.174L40.4472 169.486C40.3584 174.695 45.1266 178.641 50.2271 177.578C63.2423 174.868 120.798 160.888 121.5 160.269C122.095 159.742 83.9286 98.9438 59.5927 61.6462L48.8103 45.123C47.2772 42.7737 43.6447 43.6364 43.3316 46.4241C42.8208 50.9753 41.9236 82.813 41.339 117.174ZM-51.2481 41.0062C-52.688 42.598 -53.5417 43.9004 -53.1438 43.9004C-52.7458 43.9004 -51.2409 42.598 -49.801 41.0062C-48.3611 39.4144 -47.5074 38.112 -47.9053 38.112C-48.3033 38.112 -49.8082 39.4144 -51.2481 41.0062ZM14.6501 102.777C-6.91901 158.546 -7.2446 159.556 -5.03488 163.828C-2.72675 168.29 -1.44171 168.814 28.493 177.503C32.2217 178.585 35.9637 175.84 36.05 171.958L36.8168 137.46C37.6054 101.89 38.18 50.9044 37.8428 46.1912C37.7907 45.4618 37.4854 45.1362 37.1641 45.4676C36.8428 45.8004 26.7116 71.5892 14.6501 102.777ZM-116.337 92.4738C-126.021 113.328 -126.053 113.438 -123.924 118.773C-121.189 125.63 -118.178 127.638 -114.808 124.854C-113.42 123.707 -101.856 108.767 -89.113 91.6548C-76.3698 74.5428 -65.3501 59.7592 -64.6265 58.8026C-63.9015 57.8461 -73.053 60.3178 -84.9612 64.2973C-98.7823 68.9148 -110.091 79.021 -116.228 92.238L-116.337 92.4738ZM236.375 65.7372C234.18 68.1958 231.255 71.9843 229.876 74.1564C227.383 78.0809 227.413 78.1808 234.468 89.584C249.068 113.185 259.947 128.556 262.05 128.556C263.485 128.556 266.994 121.701 272.414 108.314C276.92 97.1798 280.344 87.6463 280.024 87.1282C279.704 86.6102 275.214 85.3454 270.048 84.318C264.882 83.292 259.986 82.0388 259.168 81.5337C258.351 81.0272 256.549 77.1273 255.163 72.8656C253.005 66.2292 251.916 64.8544 247.579 63.3002C240.586 60.7953 240.834 60.7418 236.375 65.7372ZM-81.5099 89.1903C-106.439 122.657 -111.222 130 -110.325 133.433C-109.792 135.466 -99.9981 138.968 -65.9564 149.302C-41.9287 156.595 -21.4638 162.563 -20.4798 162.563C-19.4943 162.563 -18.6883 161.909 -18.6883 161.108C-18.6883 157.666 -49.5289 77.628 -55.0699 66.6922C-56.5821 63.7083 -58.4691 61.2656 -59.2636 61.2656C-60.058 61.2656 -70.0691 73.8322 -81.5099 89.1903ZM207.995 136.877C207.029 140.755 207.162 140.856 213.237 140.856C223.348 140.856 253.746 136.715 255.342 135.118C257.406 133.055 254.497 127.471 238.66 103.103C233.271 94.8104 220.67 96.4944 217.647 105.911L217.091 107.642C212.631 121.533 208.539 134.689 207.995 136.877ZM274.59 113.27C270.967 122.372 268.373 130.421 268.828 131.156C269.871 132.845 276.075 131.844 289.682 127.792L291.66 127.203C295.489 126.062 296.598 121.174 293.637 118.493C287.72 113.137 286.671 111.273 285.118 103.382C284.144 98.4301 282.859 94.9064 282.263 95.5504C281.667 96.1929 278.214 104.168 274.59 113.27ZM-142.741 126.055L-144.111 127.059C-146.757 128.999 -145.488 133.188 -142.21 133.333C-128.965 133.917 -125.774 132.998 -125.774 128.596C-125.774 123.154 -128.855 117.465 -131.296 118.402C-132.458 118.847 -137.608 122.291 -142.741 126.055ZM272.667 136.515C272.399 136.515 272.179 137.736 272.179 139.228C272.179 140.971 276.018 144.596 282.907 149.358C288.808 153.437 293.926 156.774 294.282 156.774C294.64 156.774 294.279 154.332 293.482 151.346C292.201 146.551 292.555 144.885 296.517 137.037C298.209 133.685 295.067 129.936 291.47 131.016L287.077 132.334C279.421 134.634 272.936 136.515 272.667 136.515ZM-157.61 145.836C-157.61 150.167 -157.043 154.06 -156.351 154.488C-155.221 155.187 -132.84 142.532 -129.464 139.285C-128.63 138.483 -133.901 137.962 -142.85 137.962H-149.736C-154.085 137.962 -157.61 141.487 -157.61 145.836ZM229.49 143.196C218.347 144.5 208.979 145.789 208.67 146.061C207.979 146.675 217.822 158.907 250.45 197.982C264.391 214.677 276.612 229.329 277.606 230.542C280.771 234.4 278.192 213.21 274.932 208.566C271.451 203.61 271.451 200.441 274.933 196.662C277.649 193.715 277.596 193.377 270.78 170.726C265.031 151.62 263.175 147.206 259.705 144.368C254.658 140.24 254.743 140.244 229.49 143.196ZM-110.168 145.559C-108.618 148.145 -103.601 156.611 -99.0184 164.372C-94.4368 172.132 -90.2736 178.481 -89.7685 178.481C-87.7831 178.481 -29.3694 168.206 -26.711 167.39C-24.8023 166.803 -29.0452 164.959 -39.735 161.728C-81.5852 149.079 -109.31 140.994 -111.06 140.929C-112.469 140.875 -112.23 142.117 -110.168 145.559ZM-140.039 151.299C-153.511 159.436 -166.293 170.764 -166.293 174.564C-166.293 175.886 -164.501 178.076 -162.313 179.432C-160.125 180.788 -157.664 182.683 -156.846 183.644C-155.687 185.004 -149.602 184.796 -129.351 182.699C-115.046 181.217 -101.879 179.989 -100.088 179.967C-98.2963 179.945 -96.8318 179.297 -96.8318 178.526C-96.8318 176.86 -110.549 153.287 -114.54 148.092C-117.476 144.271 -122.237 142.182 -125.646 143.218C-126.771 143.559 -133.247 147.196 -140.039 151.299ZM267.838 146.785C267.838 149.595 281.066 192.182 282.357 193.526C283.077 194.277 287.406 191.15 292.605 186.124L296.682 182.184C299.716 179.252 300.898 174.893 299.761 170.83C298.067 164.778 296.771 163.45 284.051 154.717C269.904 145.004 267.838 143.992 267.838 146.785ZM155.093 169.701C153.254 171.089 152.288 172.972 152.788 174.199C153.929 177.006 165.848 186.009 215.051 221.231L247.78 244.66C252.95 248.361 259.807 248.694 265.311 245.511C279.052 237.565 278.672 238.349 272.446 230.768C269.417 227.08 252.487 206.699 234.824 185.473L218.356 165.684C209.123 154.591 193.596 151.071 180.482 157.099C168.259 162.716 156.834 168.387 155.093 169.701ZM158.582 156.703C148.235 159.122 138.227 161.46 136.343 161.901C130.544 163.259 134.45 164.713 144.588 164.971C153.453 165.197 155.42 164.638 168.711 158.123C176.671 154.222 181.88 151.319 180.288 151.669C178.697 152.021 168.929 154.287 158.582 156.703ZM104.524 185.711C83.8809 204.946 78.023 210.961 82.7464 208.076C93.4086 201.564 128.475 179.326 131.165 177.37C133.062 175.992 134.634 173.76 134.66 172.413C134.7 170.179 129.683 165.457 127.268 165.457C126.715 165.457 116.481 174.571 104.524 185.711ZM79.4282 175.009C60.0862 179.468 43.7672 183.575 43.1652 184.136C41.9554 185.265 54.0011 210.989 57.6261 215.02C58.8793 216.414 60.7924 217.553 61.8791 217.553C64.9311 217.553 119.277 167.06 116.329 166.962C115.377 166.93 98.7716 170.551 79.4282 175.009ZM-54.847 176.966C-72.5581 180.112 -87.3085 182.947 -87.6268 183.265C-88.1999 183.837 -69.729 232.438 -60.6847 254.159C-58.1016 260.364 -55.2971 265.21 -54.4549 264.929C-52.1453 264.159 -18.1731 176.124 -19.176 173.51C-19.6535 172.264 -20.6288 171.245 -21.3437 171.245C-22.0586 171.245 -37.1345 173.82 -54.847 176.966ZM-1.32306 173.345C-1.32306 174.064 19.7583 191.173 39.7399 206.669C42.7716 209.02 46.877 205.602 45.1138 202.195L44.0812 200.199C38.6473 189.7 29.1793 181.861 17.851 178.482L17.4893 178.374C7.54044 175.406 -0.763031 172.914 -0.961273 172.836C-1.15955 172.756 -1.32306 172.986 -1.32306 173.345ZM-16.9749 184.993C-28.8499 214.317 -50.0875 268.999 -49.7533 269.388C-48.7649 270.541 41.5344 231.456 48.6425 226.798C50.5729 225.534 50.8978 222.835 49.3227 221.148L49.0231 220.827C44.9828 216.501 14.4749 191.652 1.68112 182.269C-10.272 173.501 -12.4498 173.82 -16.9749 184.993ZM103.734 199.737C71.3374 220.289 68.721 222.267 67.4953 227.148C66.4158 231.451 66.5982 231.734 113.885 299.641C136.318 331.856 137.324 333.059 138.11 328.583C139.309 321.748 141.088 183.565 140.011 180.76C139.165 178.553 138.764 178.552 134.511 180.751C131.987 182.057 118.138 190.6 103.734 199.737ZM144.74 218.566C144.132 238.304 143.267 273.127 142.82 295.951L142.419 316.433C142.228 326.18 152.27 332.791 161.147 328.762C171.675 323.984 195.104 313.199 213.21 304.794C245.841 289.646 246.131 289.471 246.114 285.006C246.071 273.732 242.557 266.281 232.964 257.128C202.496 228.056 148.317 180.207 147.167 181.358C146.442 182.083 145.349 198.827 144.74 218.566ZM-130.515 187.016C-151.223 189.24 -155.277 190.079 -158.102 192.735C-159.924 194.445 -162.788 195.846 -164.467 195.846C-167.867 195.846 -175.653 201.834 -178.033 206.281C-179.26 208.575 -178.647 211.304 -175.035 219.587L-173.501 223.105C-171.581 227.508 -171.565 232.509 -173.457 236.924C-177.37 246.05 -177.281 246.874 -171.305 256.71L-171.067 257.102C-167.925 262.275 -166.795 268.423 -167.892 274.375C-168.996 280.364 -168.068 286.551 -165.257 291.954L-163.542 295.25C-160.213 301.65 -156.613 308.083 -155.541 309.549C-153.713 312.048 -153.402 311.904 -150.554 307.219C-148.097 303.181 -110.125 218.641 -98.4149 191.143L-97.5941 189.216C-96.6022 186.887 -98.3322 184.307 -100.863 184.34C-103.818 184.378 -117.162 185.583 -130.515 187.016ZM-113.157 235.641C-132.873 280.471 -146.033 311.238 -146.033 312.506C-146.033 314.009 -141.225 312.182 -117.488 301.66C-73.8605 282.321 -63.5485 277.078 -63.5485 274.24C-63.5485 272.829 -62.8481 270.974 -61.99 270.116C-60.4372 268.563 -61.7121 264.883 -83.8498 207.035C-88.0421 196.078 -91.6266 187.287 -91.8133 187.499C-92 187.712 -101.604 209.377 -113.157 235.641ZM180.316 203.045C182.689 205.413 197.979 219.668 214.295 234.724L239.929 258.377C242.201 260.474 245.708 260.46 247.964 258.345C250.165 256.28 251.793 254.078 251.581 253.449C251.196 252.306 178.011 198.887 176.698 198.791C176.316 198.764 177.944 200.678 180.316 203.045ZM6.30173 251.007C-38.3269 270.883 -46.1832 274.735 -46.1832 276.733C-46.1832 277.956 -23.3451 292.145 0.124054 305.503C13.6631 313.209 19.1404 315.608 21.8971 315.041C25.2834 314.345 26.6567 311.221 38.8615 276.409C52.4759 237.578 54.648 230.577 53.0793 230.577C52.5829 230.577 31.5334 239.77 6.30173 251.007ZM42.8859 278.099C30.7679 311.917 29.781 316.283 33.1078 321.365C33.7533 322.35 47.9218 326.686 64.5954 331C105.742 341.646 102.868 341.131 102.868 337.852C102.868 335.649 78.5237 275.364 63.4261 240.184L62.5552 238.154C61.705 236.173 58.9273 236.087 57.9575 238.013C56.6102 240.688 49.8277 258.727 42.8859 278.099ZM85.3512 282.086C106.881 333.978 107.518 335.257 113.581 338.834C117.794 341.32 120.212 341.763 125.689 341.053C129.454 340.565 133.289 339.765 134.214 339.276C135.269 338.717 123.973 321.353 103.825 292.563C86.1861 267.362 71.5849 246.91 71.3779 247.117C71.1695 247.324 77.4587 263.06 85.3512 282.086ZM-52.2639 285.205C-53.8268 287.015 -55.9642 300.942 -59.7556 334.044C-62.673 359.513 -65.4804 385.887 -65.9926 392.652C-66.3307 397.108 -61.0664 399.703 -57.7383 396.721L-56.9164 395.985C-51.4116 391.053 -32.9061 373.764 -15.7941 357.567C10.8326 332.361 15.3186 327.509 15.3186 323.91C15.3186 319.974 13.4634 318.614 -13.6234 302.702C-29.5416 293.35 -43.5423 285.057 -44.7361 284.271C-47.9559 282.153 -49.827 282.384 -52.2639 285.205ZM-104.089 300.399C-148.975 320.73 -148.479 320.29 -139.32 331.526C-130.682 342.126 -86.3794 391.163 -79.0252 398.265L-77.0722 400.152C-75.1436 402.014 -71.9163 400.917 -71.522 398.265C-71.0039 394.781 -67.7798 367.834 -64.3574 338.386C-58.1016 284.559 -58.0625 282.758 -63.1635 282.694C-64.1461 282.682 -82.562 290.649 -104.089 300.399ZM212.659 309.266C159.522 334.073 146.281 340.542 146.289 341.685C146.296 342.675 189.191 372.288 205.196 382.352C213.582 387.625 216.952 387.48 220.752 381.68C226.13 373.472 257.594 305.358 256.705 303.846C255.242 301.356 248.733 292.802 248.302 292.802C248.094 292.802 232.054 300.211 212.659 309.266ZM-166.793 314.87C-167.832 322.89 -165.16 324.331 -161.005 317.99C-158.678 314.438 -158.69 313.967 -161.238 309.238C-164.354 303.451 -165.456 304.571 -166.793 314.87ZM241.923 347.621C233.04 366.231 226.017 381.702 226.316 382.001C226.616 382.301 235.078 374.691 245.123 365.091C266.041 345.094 278.351 329.803 277.107 325.362C276.661 323.77 273.049 319.288 269.081 315.403C262.294 308.759 261.753 308.502 259.97 311.062C258.928 312.559 250.807 329.011 241.923 347.621ZM-164.846 326.496C-164.846 326.722 -161.309 330.401 -156.986 334.67L-153.538 338.076C-152.294 339.304 -150.222 338.118 -150.652 336.423C-151.693 332.324 -153.385 329.775 -155.979 328.404C-159.381 326.603 -164.846 325.428 -164.846 326.496ZM33.4074 328.65C33.4074 329.848 34.7054 331.519 54.1574 355.375L55.5777 357.117C61.9544 364.937 73.2363 366.618 81.6162 360.997C99.5689 348.951 101.31 347.161 97.2029 344.963C94.2422 343.38 38.6256 327.833 35.2163 327.637C34.2207 327.579 33.4074 328.035 33.4074 328.65ZM-27.1408 374.523C-44.9098 391.214 -60.0595 406.013 -60.8076 407.408C-62.6324 410.819 -61.5587 410.99 -26.0164 412.898L-2.42593 414.166C1.38171 414.37 5.09692 412.948 7.79367 410.252C11.7978 406.246 12.2175 404.638 15.4431 380.883C17.3199 367.06 19.2938 349.89 19.8307 342.727L20.0105 340.326C20.2947 336.531 15.7804 334.354 12.9873 336.939C8.68655 340.918 -9.37039 357.83 -27.1408 374.523ZM21.5657 363.829C17.5052 396.241 16.7021 408.57 18.6484 408.57C19.6527 408.57 43.3881 389.564 57.7723 377.24L58.4521 376.658C60.7788 374.665 61.14 371.199 59.2744 368.769C47.4009 353.295 28.4641 331.833 27.0879 332.29C26.1053 332.616 23.8927 345.257 21.5657 363.829ZM-146.003 337.758C-145.217 340.491 -142.573 352.169 -140.126 363.71C-137.679 375.251 -134.914 385.435 -133.982 386.343C-132.132 388.141 -82.3377 406.135 -81.507 405.304C-81.2263 405.025 -86.9307 397.993 -94.1822 389.68C-115.934 364.743 -146.294 331.652 -146.881 332.24C-147.184 332.542 -146.789 335.026 -146.003 337.758ZM120.234 345.724C119.04 346.063 116.588 348.511 114.787 351.165C111.526 355.965 111.513 356.223 111.892 403.559C111.946 410.281 121.572 411.352 123.102 404.806L124.436 399.099C131.124 370.482 136.92 346.18 137.317 345.093C137.894 343.506 136.503 343.313 130.22 344.113C125.921 344.66 121.427 345.384 120.234 345.724ZM135.654 368.775C132.816 380.713 127.2 405.459 123.174 423.765C119.15 442.071 115.526 458.513 115.122 460.304C114.72 462.096 114.764 463.56 115.221 463.56C117.885 463.56 208.534 398.604 209.546 395.97C209.95 394.918 209.392 392.763 208.307 391.182C205.692 387.367 142.927 344.864 141.739 346.105C141.231 346.634 138.493 356.836 135.654 368.775ZM245.609 369.96C231.108 383.862 225.697 389.955 226.082 391.95C226.499 394.115 231.303 396.228 248.311 401.722L262.441 406.288C267.059 407.779 272.124 406.467 275.435 402.919C281.193 396.75 282.031 392.778 278.803 386.948C277.153 383.969 277.162 382.518 278.853 377.721C282.106 368.501 281.429 365.64 274.152 357.859C270.462 353.915 267.042 350.696 266.554 350.709C266.067 350.721 256.64 359.385 245.609 369.96ZM86.0313 363.147C71.6616 372.717 69.6168 374.568 70.4445 377.256C71.5834 380.959 104.053 454.657 105.919 457.772C106.699 459.074 107.072 439.105 106.852 407.847C106.522 360.939 105.971 352.133 103.357 352.133C102.925 352.133 95.1278 357.09 86.0313 363.147ZM43.2491 395.226C30.4264 405.789 22.3863 413.437 22.1128 415.331C21.8205 417.35 23.049 419.363 25.7305 421.257C29.7795 424.118 74.4747 449.601 93.2075 459.731C105.023 466.12 105.168 467.995 91.3957 436.065C74.2215 396.245 65.9904 378.235 64.9557 378.207C64.3985 378.193 54.6306 385.852 43.2491 395.226ZM-116.515 404.91C-110.229 410.78 -102.931 416.741 -100.299 418.159C-95.677 420.648 -95.2791 420.639 -88.6948 417.908C-80.481 414.503 -79.2813 412.037 -84.776 409.852C-93.3732 406.431 -126.531 394.232 -127.221 394.237C-127.619 394.238 -122.801 399.042 -116.515 404.91ZM224.425 399.355C224.425 402.034 253.452 446.195 255.212 446.195C255.933 446.195 259.054 444.403 262.149 442.215C265.679 439.719 267.782 435.668 267.792 431.344L267.808 425.106C267.826 417.283 262.792 410.343 255.349 407.931L247.217 405.295C225.159 398.147 224.425 397.956 224.425 399.355ZM212.644 406.761C209.375 410.336 191.023 438.229 187.175 445.471C185.657 448.328 186.045 448.361 216.783 448.069C233.914 447.907 248.198 447.506 248.525 447.177C249.286 446.416 226.541 410.366 222.567 406.038C218.692 401.814 217.061 401.932 212.644 406.761ZM166.94 432.925C125.012 463.421 116.856 470.013 117.705 472.716C118.318 474.667 139.946 489.863 148.207 494.147C153.122 496.696 154.11 496.787 156.906 494.956C158.64 493.819 162.281 487.756 164.995 481.481C175.671 456.804 181.332 446.6 203.242 412.55C206.187 407.973 208.087 404.239 207.466 404.251C206.844 404.264 188.608 417.166 166.94 432.925ZM-65.7278 419.305C-69.3022 422.617 -69.5497 423.773 -70.3629 441.011C-70.8361 451.025 -70.8621 459.219 -70.4193 459.219C-69.4092 459.219 -2.99881 423.312 0.614594 420.813C2.9097 419.224 1.81714 418.85 -7.34448 418.095C-25.8978 416.564 -30.6385 416.316 -46.4698 416.059C-61.016 415.822 -62.181 416.017 -65.7278 419.305ZM-86.255 421.517C-89.5334 423.005 -90.8629 426.961 -89.1487 430.127L-84.0844 439.48L-83.4028 440.739C-81.1787 444.847 -74.9717 443.531 -74.6057 438.874C-73.9227 430.174 -73.7389 422.076 -74.1991 420.878C-75.309 417.985 -78.895 418.176 -86.255 421.517ZM-28.7515 441.966C-47.8894 452.375 -63.5485 461.372 -63.5485 461.96C-63.5485 462.546 -55.8962 463.822 -46.545 464.793C-35.7684 465.913 -27.3868 467.6 -23.6576 469.402C-20.4219 470.963 -16.6927 472.243 -15.3701 472.243C-14.0474 472.243 -8.61789 473.879 -3.30414 475.879C2.00964 477.879 6.52747 479.345 6.73441 479.135C7.63449 478.229 10.4607 427.116 9.71835 425.181C9.26685 424.005 8.25531 423.041 7.47098 423.041C6.68665 423.041 -9.61353 431.557 -28.7515 441.966ZM15.3389 425.902C14.2434 427.675 11.0323 479.293 11.9599 480.221C12.7196 480.979 86.5132 472.889 95.0916 471.107C97.0172 470.707 97.4383 468.145 95.7421 467.149L81.813 458.976C54.9938 443.238 29.3338 428.812 24.1344 426.549C18.7237 424.195 16.4966 424.03 15.3389 425.902ZM56.0864 480.184C11.5923 485.581 -0.51413 488.552 18.9364 489.304C25.7755 489.568 32.0992 493.01 36.0342 498.61L38.3912 501.965C43.1218 508.697 48.7771 515.915 50.9564 518.003C53.2901 520.239 56.8402 520.614 59.5894 518.915L59.9198 518.711C64.0918 516.132 93.2118 486.172 99.8106 477.669C102.365 474.377 105.407 474.202 56.0864 480.184ZM102.944 482.736C97.1436 486.798 62.3379 524.071 64.8848 523.49C92.6894 517.156 131.923 507.633 139.599 505.354C151.381 501.853 151.841 502.726 130.682 488.415C117.15 479.264 115.367 478.455 110.933 479.455C108.252 480.058 104.657 481.536 102.944 482.736ZM0.485809 484.181C2.6637 487.46 4.74319 488.049 5.55499 485.614C5.79666 484.89 4.51022 483.584 2.69702 482.71C-1.89175 480.498 -1.93951 480.53 0.485809 484.181ZM23.4644 523.985C20.9739 536.924 18.9364 548.388 18.9364 549.46C18.9364 550.922 20.8364 551.26 26.5337 550.817C39.1032 549.839 39.9324 549.419 43.7354 542.1C48.5412 532.854 48.1968 523.555 42.7412 515.219C35.8458 504.682 30.1601 498.06 29.0574 499.282C28.4713 499.93 25.9548 511.047 23.4644 523.985ZM13.1335 515.187C5.73157 526.726 4.11661 530.351 3.9473 535.795C3.76062 541.802 3.29752 542.611 -1.16245 544.716C-3.8584 545.988 -7.00006 548.815 -8.14328 550.997C-9.02075 552.672 -7.65427 554.642 -5.77798 554.408L-1.86279 553.919C14.7065 551.848 13.3839 553.364 17.7208 531.47C22.395 507.88 23.4977 501.185 22.7119 501.185C22.3834 501.185 18.0724 507.485 13.1335 515.187ZM106.486 518.009C84.9966 523.302 67.1437 527.868 66.8109 528.156C66.4795 528.444 66.4795 528.947 66.8109 529.274C67.1437 529.603 93.1366 538.107 124.575 548.175C156.013 558.242 184.544 567.393 187.978 568.507C190.209 569.231 192.171 566.845 191.031 564.796L188.82 560.821C185.848 555.48 178.326 542.534 172.102 532.054C162.427 515.76 160.158 512.861 156.444 512.045C154.057 511.521 151.731 510.491 151.277 509.756C149.888 507.507 146.856 508.066 106.486 518.009ZM61.3394 536.277C61.7504 537.273 64.154 542.714 66.6821 548.37C69.608 554.915 75.1785 559.906 82.0035 562.1L126.274 576.325L173.958 591.648C178.698 593.172 183.808 593.084 188.493 591.4C194.247 589.331 196.137 587.801 197.771 583.888C198.901 581.186 199.824 578.745 199.824 578.466C199.824 576.806 185.527 571.879 131.087 554.777C97.6588 544.275 69.6573 535.462 68.8614 535.19C65.1467 533.922 60.6361 534.575 61.3394 536.277ZM47.945 544.086C46.317 546.847 44.9842 549.34 44.9842 549.628C44.9842 550.593 63.9731 556.481 64.7097 555.743C65.6242 554.829 58.1557 539.87 56.1414 538.582C53.6943 537.018 51.0794 538.773 47.945 544.086ZM-18.0212 554.429C-16.616 555.836 -13.2602 553.366 -12.4686 550.343C-12.2281 549.423 -13.341 548.761 -14.0341 549.412L-15.1573 550.467C-17.0936 552.286 -18.3815 554.069 -18.0212 554.429ZM192.498 594.048C190.911 594.601 190.924 596.85 192.517 597.385L199.814 599.837C206.513 602.087 212.549 603.929 213.226 603.929C213.905 603.929 213.305 601.975 211.894 599.588C210.128 596.596 208.19 595.239 205.662 595.225C203.645 595.212 201.018 594.571 199.824 593.799C198.63 593.028 197.588 592.387 197.507 592.374C197.428 592.362 195.173 593.115 192.498 594.048Z" fill="white" fill-opacity="0.17"/>
</svg>
