<svg width="240" height="15" viewBox="0 0 240 15" fill="none" xmlns="http://www.w3.org/2000/svg">
<path d="M0.35 14.4756H2.402V9.00359H6.542V7.32959H2.402V3.63958H7.712V1.96558H0.35V14.4756ZM19.0637 9.50759C19.0637 6.39359 16.8317 4.39559 14.0057 4.39559C11.1797 4.39559 8.94767 6.39359 8.94767 9.50759C8.94767 12.6216 11.0897 14.6376 13.9157 14.6376C16.7597 14.6376 19.0637 12.6216 19.0637 9.50759ZM11.0357 9.50759C11.0357 7.25759 12.4217 6.17759 13.9697 6.17759C15.4997 6.17759 16.9577 7.25759 16.9577 9.50759C16.9577 11.7576 15.4457 12.8556 13.9157 12.8556C12.3677 12.8556 11.0357 11.7576 11.0357 9.50759ZM21.0922 14.4756H23.1442V1.15559H21.0922V14.4756ZM25.8383 14.4756H27.8903V1.15559H25.8383V14.4756ZM40.0344 9.50759C40.0344 6.39359 37.8024 4.39559 34.9764 4.39559C32.1504 4.39559 29.9184 6.39359 29.9184 9.50759C29.9184 12.6216 32.0604 14.6376 34.8864 14.6376C37.7304 14.6376 40.0344 12.6216 40.0344 9.50759ZM32.0064 9.50759C32.0064 7.25759 33.3924 6.17759 34.9404 6.17759C36.4704 6.17759 37.9284 7.25759 37.9284 9.50759C37.9284 11.7576 36.4164 12.8556 34.8864 12.8556C33.3384 12.8556 32.0064 11.7576 32.0064 9.50759ZM43.9889 14.4756H46.1489L48.1469 7.14959L50.1449 14.4756H52.3049L55.3829 4.55759H53.3669L51.3149 12.4956L49.2989 4.55759H47.1569L45.0509 12.5316L42.9809 4.55759H40.8929L43.9889 14.4756ZM70.5742 4.55759H68.5222V10.0836C68.5222 11.9016 67.5322 12.8376 66.0202 12.8376C64.5262 12.8376 63.5362 11.9016 63.5362 10.0836V4.55759H61.5022V10.3896C61.5022 13.1616 63.2662 14.6196 65.5882 14.6196C66.7582 14.6196 67.8742 14.1336 68.5222 13.2876V14.4756H70.5742V4.55759ZM80.6796 11.7036C80.5716 8.12159 74.9736 9.23759 74.9736 7.23959C74.9736 6.57359 75.5496 6.12359 76.6476 6.12359C77.7636 6.12359 78.4296 6.71759 78.5016 7.58159H80.5536C80.4456 5.60159 78.9696 4.39559 76.7196 4.39559C74.3796 4.39559 72.9036 5.67359 72.9036 7.25759C72.9036 10.8936 78.6636 9.77759 78.6636 11.7216C78.6636 12.4056 78.0336 12.9096 76.8456 12.9096C75.7116 12.9096 74.9376 12.2436 74.8656 11.4336H72.7416C72.8316 13.2336 74.5056 14.6376 76.8816 14.6376C79.2216 14.6376 80.6796 13.3776 80.6796 11.7036ZM97.0227 9.50759C97.0227 6.39359 94.7907 4.39559 91.9647 4.39559C89.1387 4.39559 86.9067 6.39359 86.9067 9.50759C86.9067 12.6216 89.0487 14.6376 91.8747 14.6376C94.7187 14.6376 97.0227 12.6216 97.0227 9.50759ZM88.9947 9.50759C88.9947 7.25759 90.3807 6.17759 91.9287 6.17759C93.4587 6.17759 94.9167 7.25759 94.9167 9.50759C94.9167 11.7576 93.4047 12.8556 91.8747 12.8556C90.3267 12.8556 88.9947 11.7576 88.9947 9.50759ZM106.089 14.4756H108.123V8.62559C108.123 5.85359 106.377 4.39559 104.055 4.39559C102.867 4.39559 101.769 4.88159 101.103 5.69159V4.55759H99.0512V14.4756H101.103V8.93159C101.103 7.11359 102.093 6.17759 103.605 6.17759C105.099 6.17759 106.089 7.11359 106.089 8.93159V14.4756ZM122.814 11.7036C122.706 8.12159 117.108 9.23759 117.108 7.23959C117.108 6.57359 117.684 6.12359 118.782 6.12359C119.898 6.12359 120.564 6.71759 120.636 7.58159H122.688C122.58 5.60159 121.104 4.39559 118.854 4.39559C116.514 4.39559 115.038 5.67359 115.038 7.25759C115.038 10.8936 120.798 9.77759 120.798 11.7216C120.798 12.4056 120.168 12.9096 118.98 12.9096C117.846 12.9096 117.072 12.2436 117 11.4336H114.876C114.966 13.2336 116.64 14.6376 119.016 14.6376C121.356 14.6376 122.814 13.3776 122.814 11.7036ZM134.482 9.50759C134.482 6.39359 132.25 4.39559 129.424 4.39559C126.598 4.39559 124.366 6.39359 124.366 9.50759C124.366 12.6216 126.508 14.6376 129.334 14.6376C132.178 14.6376 134.482 12.6216 134.482 9.50759ZM126.454 9.50759C126.454 7.25759 127.84 6.17759 129.388 6.17759C130.918 6.17759 132.376 7.25759 132.376 9.50759C132.376 11.7576 130.864 12.8556 129.334 12.8556C127.786 12.8556 126.454 11.7576 126.454 9.50759ZM135.826 9.50759C135.826 12.6216 137.842 14.6376 140.686 14.6376C143.116 14.6376 144.7 13.2876 145.258 11.3436H143.044C142.666 12.3696 141.91 12.9096 140.686 12.9096C139.03 12.9096 137.932 11.6856 137.932 9.50759C137.932 7.34759 139.03 6.12359 140.686 6.12359C141.91 6.12359 142.702 6.73559 143.044 7.68959H145.258C144.7 5.60159 143.116 4.39559 140.686 4.39559C137.842 4.39559 135.826 6.41159 135.826 9.50759ZM147.303 14.4756H149.355V4.55759H147.303V14.4756ZM148.347 3.24359C149.067 3.24359 149.643 2.66759 149.643 1.92959C149.643 1.19159 149.067 0.615585 148.347 0.615585C147.609 0.615585 147.033 1.19159 147.033 1.92959C147.033 2.66759 147.609 3.24359 148.347 3.24359ZM151.365 9.47159C151.365 12.5316 153.435 14.6376 156.009 14.6376C157.665 14.6376 158.853 13.8456 159.483 12.9996V14.4756H161.553V4.55759H159.483V5.99759C158.871 5.18759 157.719 4.39559 156.045 4.39559C153.435 4.39559 151.365 6.41159 151.365 9.47159ZM159.483 9.50759C159.483 11.6496 158.025 12.8556 156.477 12.8556C154.947 12.8556 153.471 11.6136 153.471 9.47159C153.471 7.32959 154.947 6.17759 156.477 6.17759C158.025 6.17759 159.483 7.38359 159.483 9.50759ZM164.248 14.4756H166.3V1.15559H164.248V14.4756ZM187.728 14.4756H189.762V8.62559C189.762 5.85359 187.998 4.39559 185.676 4.39559C184.236 4.39559 182.832 5.15159 182.22 6.35759C181.536 5.06159 180.222 4.39559 178.656 4.39559C177.468 4.39559 176.388 4.88159 175.722 5.69159V4.55759H173.67V14.4756H175.722V8.93159C175.722 7.11359 176.712 6.17759 178.224 6.17759C179.718 6.17759 180.708 7.11359 180.708 8.93159V14.4756H182.742V8.93159C182.742 7.11359 183.732 6.17759 185.244 6.17759C186.738 6.17759 187.728 7.11359 187.728 8.93159V14.4756ZM196.549 6.12359C198.079 6.12359 199.285 7.09559 199.321 8.62559H193.831C194.047 7.05959 195.163 6.12359 196.549 6.12359ZM201.193 11.5236H198.979C198.601 12.2976 197.899 12.9096 196.639 12.9096C195.127 12.9096 193.957 11.9196 193.813 10.2816H201.391C201.445 9.93959 201.463 9.61559 201.463 9.27359C201.463 6.35759 199.465 4.39559 196.639 4.39559C193.705 4.39559 191.689 6.39359 191.689 9.50759C191.689 12.6216 193.795 14.6376 196.639 14.6376C199.069 14.6376 200.635 13.2516 201.193 11.5236ZM202.799 9.47159C202.799 12.5316 204.869 14.6376 207.479 14.6376C209.099 14.6376 210.287 13.8816 210.917 12.9816V14.4756H212.987V1.15559H210.917V5.94359C210.161 5.00759 208.793 4.39559 207.497 4.39559C204.869 4.39559 202.799 6.41159 202.799 9.47159ZM210.917 9.50759C210.917 11.6496 209.459 12.8556 207.911 12.8556C206.381 12.8556 204.905 11.6136 204.905 9.47159C204.905 7.32959 206.381 6.17759 207.911 6.17759C209.459 6.17759 210.917 7.38359 210.917 9.50759ZM215.682 14.4756H217.734V4.55759H215.682V14.4756ZM216.726 3.24359C217.446 3.24359 218.022 2.66759 218.022 1.92959C218.022 1.19159 217.446 0.615585 216.726 0.615585C215.988 0.615585 215.412 1.19159 215.412 1.92959C215.412 2.66759 215.988 3.24359 216.726 3.24359ZM219.744 9.47159C219.744 12.5316 221.814 14.6376 224.388 14.6376C226.044 14.6376 227.232 13.8456 227.862 12.9996V14.4756H229.932V4.55759H227.862V5.99759C227.25 5.18759 226.098 4.39559 224.424 4.39559C221.814 4.39559 219.744 6.41159 219.744 9.47159ZM227.862 9.50759C227.862 11.6496 226.404 12.8556 224.856 12.8556C223.326 12.8556 221.85 11.6136 221.85 9.47159C221.85 7.32959 223.326 6.17759 224.856 6.17759C226.404 6.17759 227.862 7.38359 227.862 9.50759ZM239.427 13.2876C239.427 12.5496 238.851 11.9736 238.131 11.9736C237.393 11.9736 236.817 12.5496 236.817 13.2876C236.817 14.0256 237.393 14.6016 238.131 14.6016C238.851 14.6016 239.427 14.0256 239.427 13.2876ZM239.427 5.72759C239.427 4.98959 238.851 4.41359 238.131 4.41359C237.393 4.41359 236.817 4.98959 236.817 5.72759C236.817 6.46559 237.393 7.04159 238.131 7.04159C238.851 7.04159 239.427 6.46559 239.427 5.72759Z" fill="#F93975"/>
</svg>
